<?xml version="1.0" standalone="no"?>
<!DOCTYPE svg PUBLIC "-//W3C//DTD SVG 1.1//EN" "http://www.w3.org/Graphics/SVG/1.1/DTD/svg11.dtd" >
<svg xmlns="http://www.w3.org/2000/svg" xmlns:xlink="http://www.w3.org/1999/xlink" version="1.1">
<metadata>
Created by FontForge 20201107 at Mon Jan 31 09:45:16 2022
 By Jimmy Wärting
Alexander Shimanov
</metadata>
<defs>
<font id="STKooperativRegular" horiz-adv-x="579" >
  <font-face 
    font-family="ST-Kooperativ"
    font-weight="400"
    font-stretch="normal"
    units-per-em="1000"
    panose-1="0 0 0 0 0 0 0 0 0 0"
    ascent="800"
    descent="-200"
    x-height="699.979"
    cap-height="700.009"
    bbox="1 -124.991 877.205 958.763"
    underline-thickness="0"
    underline-position="0"
    unicode-range="U+000A-F00B"
  />
<missing-glyph horiz-adv-x="527" 
d="M50 700h427v-700h-427v700zM78 680l185 -309l186 309h-371zM251 350l-180 300v-601zM264 329l-185 -308h370zM276 350l181 -303v605z" />
    <glyph glyph-name=".notdef" horiz-adv-x="527" 
d="M50 700h427v-700h-427v700zM78 680l185 -309l186 309h-371zM251 350l-180 300v-601zM264 329l-185 -308h370zM276 350l181 -303v605z" />
    <glyph glyph-name=".null" horiz-adv-x="0" 
 />
    <glyph glyph-name=".null" horiz-adv-x="0" 
 />
    <glyph glyph-name="controlLF" unicode="&#xa;" horiz-adv-x="0" 
 />
    <glyph glyph-name="controlCR" unicode="&#xd;" horiz-adv-x="0" 
 />
    <glyph glyph-name="space" unicode=" " horiz-adv-x="291" 
 />
    <glyph glyph-name="exclam" unicode="!" horiz-adv-x="299" 
d="M228.794 -0.0126953h-158.51v158.531h158.51v-158.531zM50 700.03h199.078v-61.4717l-26.8457 -427.523h-145.387l-26.8457 427.523v61.4717z" />
    <glyph glyph-name="quotedbl" unicode="&#x22;" horiz-adv-x="399" 
d="M171.726 534.359h-121.726v208.396h121.726v-208.396zM348.659 534.359h-121.726v208.396h121.726v-208.396z" />
    <glyph glyph-name="quotedbl" unicode="&#x201d;" horiz-adv-x="399" 
d="M171.726 534.359h-121.726v208.396h121.726v-208.396zM348.659 534.359h-121.726v208.396h121.726v-208.396z" />
    <glyph glyph-name="quotedbl" unicode="&#x201c;" horiz-adv-x="399" 
d="M171.726 534.359h-121.726v208.396h121.726v-208.396zM348.659 534.359h-121.726v208.396h121.726v-208.396z" />
    <glyph glyph-name="numbersign" unicode="#" horiz-adv-x="822" 
d="M715.802 294.471l-28.8965 -115.911h-100.052l-44.501 -178.559h-179.884l44.5225 178.559h-76.7539l-44.5225 -178.559h-179.884l44.5225 178.559h-100.352l28.8975 115.911h100.352l27.6797 111.038h-100.352l28.8975 115.933h100.372l44.501 178.58h179.884
l-44.5225 -178.58h76.7539l44.5225 178.58h179.884l-44.5225 -178.58h100.03l-28.8975 -115.933h-100.03l-27.6797 -111.038h100.03zM435.889 294.471l27.6797 111.038h-76.7539l-27.6797 -111.038h76.7539z" />
    <glyph glyph-name="dollar" unicode="$" 
d="M529.142 541.482h-320.61v-112.214h320.61v-429.276h-160.306v-86.9287h-158.51v86.9287h-160.327v158.51h320.632v112.235h-320.61v429.255h160.306v98.8125h158.51v-98.8125h160.306v-158.51z" />
    <glyph glyph-name="percent" unicode="%" horiz-adv-x="832" 
d="M304.693 700.03v-254.693h-254.693v254.693h254.693zM208.51 541.521v62.3271h-62.3271v-62.3271h62.3271zM527.603 254.702h254.693v-254.693h-254.693v254.693zM686.112 96.1924v62.3271h-62.3271v-62.3271h62.3271zM530.253 700.031h155.325l-383.536 -700.021
h-155.325z" />
    <glyph glyph-name="ampersand" unicode="&#x26;" horiz-adv-x="679" 
d="M673.075 0.00683594h-158.532l-52.5371 81.2637l-51.2119 -81.2637h-360.794v270.745l52.0459 79.2549l-52.0459 79.2549v270.745h471.533v-192.772h-158.51v34.2627h-154.513v-60.3174l28.5771 -51.918h284.445v-138.033h-36.7422zM341.456 158.517l33.8145 56.9404
l-48.9893 75.7715h-84.4062l-33.3652 -52.8369v-79.875h132.946z" />
    <glyph glyph-name="quotesingle" unicode="'" horiz-adv-x="243" 
d="M71.374 742.748h121.726l-21.374 -208.396h-121.726z" />
    <glyph glyph-name="quotesingle" unicode="&#x2018;" horiz-adv-x="243" 
d="M71.374 742.748h121.726l-21.374 -208.396h-121.726z" />
    <glyph glyph-name="parenleft" unicode="(" horiz-adv-x="322" 
d="M208.51 503.261v-306.525l63.2676 -239.475h-158.531l-63.2461 239.475v306.525l63.2461 239.496h158.531z" />
    <glyph glyph-name="parenright" unicode=")" horiz-adv-x="322" 
d="M208.51 742.757l63.2676 -239.496v-306.525l-63.2676 -239.475h-158.51l63.2676 239.475v306.525l-63.2676 239.496h158.51z" />
    <glyph glyph-name="plus" unicode="+" horiz-adv-x="506" 
d="M456.106 417.371v-134.742h-135.661v-135.683h-134.742v135.683h-135.704v134.742h135.704v135.683h134.742v-135.683h135.661z" />
    <glyph glyph-name="comma" unicode="," horiz-adv-x="322" 
d="M113.268 158.519h158.51l-63.2676 -239.496h-158.51z" />
    <glyph glyph-name="hyphen" unicode="-" horiz-adv-x="506" 
d="M456.106 270.745h-406.106v158.51h406.106v-158.51z" />
    <glyph glyph-name="period" unicode="." horiz-adv-x="209" 
d="M183.51 0.00976562h-158.51v158.51h158.51v-158.51z" />
    <glyph glyph-name="slash" unicode="/" horiz-adv-x="588" 
d="M407.3 770.76h179.88l-406.3 -785.5h-179.88z" />
    <glyph glyph-name="zero" unicode="0" 
d="M50 699.998h479.142v-700h-479.142v700zM370.61 158.508v382.98h-162.101v-382.98h162.101z" />
    <glyph glyph-name="one" unicode="1" horiz-adv-x="337" 
d="M25 699.998h261.447v-700h-158.531v541.49h-102.916v158.51z" />
    <glyph glyph-name="two" unicode="2" 
d="M50.0215 699.998h479.12v-429.255h-320.61v-112.235h320.61v-158.51h-479.142v158.51h0.0214844v270.745h320.61v112.235h-320.61v158.51z" />
    <glyph glyph-name="three" unicode="3" horiz-adv-x="553" 
d="M502.702 541.488h-0.234375l-119.246 -121.084h119.48v-420.406h-452.702v158.51h294.171v112.235h-196.727l1.30371 109.734l156.522 161.011h-255.271v158.51h452.702v-158.51z" />
    <glyph glyph-name="four" unicode="4" horiz-adv-x="526" 
d="M317.59 700h158.51v-700h-158.51v158.51h-297.59v158.51l92.7402 382.98h158.51l-90.71 -382.98h137.05v382.98z" />
    <glyph glyph-name="five" unicode="5" 
d="M529.142 541.488h-320.61v-112.235h320.61v-429.255h-479.142v158.51h320.632v112.235h-320.61v429.255h479.12v-158.51z" />
    <glyph glyph-name="six" unicode="6" 
d="M529.121 541.488h-320.61v-112.235h320.61v-429.255h-479.121v700h479.121v-158.51zM370.611 270.743h-162.101v-112.235h162.101v112.235z" />
    <glyph glyph-name="seven" unicode="7" horiz-adv-x="511" 
d="M20 700h485.149l-309.35 -700h-175.8l239.3 541.49h-239.3v158.51z" />
    <glyph glyph-name="eight" unicode="8" horiz-adv-x="572" 
d="M521.555 699.998v-270.745l-52.0459 -79.2549l52.0459 -79.2549v-270.745h-471.555v270.745l52.0459 79.2549l-52.0459 79.2549v270.745h471.555zM208.532 158.508h154.534v60.3174l-28.5771 51.918h-97.3799l-28.5771 -51.918v-60.3174zM363.045 481.17
l-0.0214844 60.3174h-154.513v-60.3174l28.5771 -51.918h97.3799z" />
    <glyph glyph-name="nine" unicode="9" 
d="M50 700h479.12v-408.778l-144.51 -291.222h-163.938l105.182 211.967h-275.854v488.033zM370.61 370.477v171.014h-162.101v-171.014h162.101z" />
    <glyph glyph-name="colon" unicode=":" horiz-adv-x="259" 
d="M208.51 435.248h-158.51v158.51h158.51v-158.51zM208.51 113.996h-158.51v158.51h158.51v-158.51z" />
    <glyph glyph-name="semicolon" unicode=";" horiz-adv-x="293" 
d="M242.777 331.622h-158.51v158.51h158.51v-158.51zM21 -124.991l63.2676 239.475h158.51l-63.2676 -239.475h-158.51z" />
    <glyph glyph-name="less" unicode="&#x3c;" horiz-adv-x="415" 
d="M364.925 700.021l-153.658 -350.021l153.658 -350h-161.246l-153.68 350l153.68 350.021h161.246z" />
    <glyph glyph-name="equal" unicode="=" horiz-adv-x="449" 
d="M399.444 384.135h-349.423v115.933h349.423v-115.933zM399.423 199.912h-349.423v115.933h349.423v-115.933z" />
    <glyph glyph-name="greater" unicode="&#x3e;" horiz-adv-x="415" 
d="M211.246 700.021l153.68 -350.021l-153.68 -350h-161.246l153.658 350l-153.658 350.021h161.246z" />
    <glyph glyph-name="question" unicode="?" 
d="M368.815 -0.0126953h-158.51v158.531h158.51v-158.531zM50 700.03l479.12 -0.000976562v-337.09l-181.658 -151.905h-123.414l-13.7217 69.6797l160.284 145.13v115.677h-162.101v-119.694h-158.51v278.204z" />
    <glyph glyph-name="at" unicode="@" horiz-adv-x="873" 
d="M256.965 609.849l358.849 0.000976562v-397.878h120.357v488.204h-599.563v-700.171h686.171v-86.6074h-772.778v869.667h772.778v-689.206h-565.813v318.003h222.076v70.5127h-222.076v127.475zM390.189 300.503v-88.5312h86.8643v88.5312h-86.8643z" />
    <glyph glyph-name="A" unicode="A" horiz-adv-x="577" 
d="M392.634 -0.0195312l-19.2803 164.58h-170.564l-19.2578 -164.58h-158.531l81.9482 700h362.269l81.9482 -700h-158.531zM221.362 323.07h133.46l-25.5635 218.4h-82.333z" />
    <glyph glyph-name="B" unicode="B" horiz-adv-x="570" 
d="M439.521 429.255h80.708v-429.255h-470.229v700h470.101zM306.702 541.49h-98.1924v-112.235h66.1104zM208.51 158.51h153.188v112.235h-153.188v-112.235z" />
    <glyph glyph-name="C" unicode="C" 
d="M50 699.98h479.121v-208.396h-158.51v49.8867h-162.101v-382.98h162.101v49.8867h158.51v-208.396h-479.121v700z" />
    <glyph glyph-name="D" unicode="D" horiz-adv-x="576" 
d="M468.568 699.98l81.9473 -700h-500.516v700h418.568zM208.531 158.49h164.9l-44.8213 382.98h-120.079v-382.98z" />
    <glyph glyph-name="E" unicode="E" 
d="M529.142 541.471h-320.61v-112.235h162.079v-158.51h-162.079v-112.235h320.61v-158.51h-479.142v700h479.142v-158.51z" />
    <glyph glyph-name="F" unicode="F" horiz-adv-x="555" 
d="M529.131 541.471h-320.611v-112.235h162.101v-158.51h-162.101v-270.745h-158.51v700h479.121v-158.51z" />
    <glyph glyph-name="G" unicode="G" 
d="M208.51 158.49h162.102v112.235h-81.0508v158.51h239.561v-429.255h-479.121v700h479.12v-158.51h-320.61v-382.98z" />
    <glyph glyph-name="H" unicode="H" horiz-adv-x="570" 
d="M361.719 699.98h158.51v-700h-158.51v270.745h-153.166v-270.745h-158.553v700h158.553v-270.745h153.166v270.745z" />
    <glyph glyph-name="I" unicode="I" horiz-adv-x="259" 
d="M208.531 -0.0195312h-158.531v700h158.531v-700z" />
    <glyph glyph-name="J" unicode="J" 
d="M50 699.98h479.121v-700h-479.121v270.745h158.51v-112.235h162.101v382.98h-320.61v158.51z" />
    <glyph glyph-name="K" unicode="K" horiz-adv-x="567" 
d="M516.98 700v-191.084l-118.391 -158.916l118.391 -158.916v-191.084h-167.829v158.51l-85.4746 112.235h-55.166v-270.745h-158.51v700h158.51v-270.745h50.25l90.3906 114.629v156.116h167.829z" />
    <glyph glyph-name="L" unicode="L" horiz-adv-x="455" 
d="M208.531 158.49h230.52v-158.51h-389.051v700h158.531v-541.49z" />
    <glyph glyph-name="M" unicode="M" horiz-adv-x="688" 
d="M452.495 699.98h185.27v-700h-158.51v425.963l-134.849 -280.513l-0.491211 -1.17578l-0.0429688 0.0859375l-0.0429688 -0.0859375l-0.470703 1.17578l-134.849 280.471v-425.921h-158.51v700h185.271l108.623 -225.774z" />
    <glyph glyph-name="N" unicode="N" 
d="M370.781 699.98h158.531v-700h-158.531l-162.079 353.697v-353.697h-158.531v699.637l-0.170898 0.363281h158.702v-0.40625l162.079 -353.697v354.104z" />
    <glyph glyph-name="O" unicode="O" 
d="M50 699.98h479.142v-700h-479.142v700zM370.61 158.49v382.98h-162.101v-382.98h162.101z" />
    <glyph glyph-name="P" unicode="P" 
d="M50 699.98h479.12v-488.033h-320.61v-211.967h-158.51v700zM370.61 370.457v171.014h-162.101v-171.014h162.101z" />
    <glyph glyph-name="Q" unicode="Q" 
d="M50 699.98h479.142v-700h-129.334l23.4258 -113.219h-158.51l-23.4258 113.219h-191.298v700zM370.61 158.49v382.98h-162.101v-382.98h162.101z" />
    <glyph glyph-name="R" unicode="R" 
d="M50 699.98h479.12v-488.033h-103.236l103.236 -211.967h-158.51l-103.236 211.967h-58.8643v-211.967h-158.51v700zM370.61 370.457v171.014h-162.101v-171.014h162.101z" />
    <glyph glyph-name="S" unicode="S" 
d="M529.142 541.471h-320.61v-112.235h320.61v-429.255h-479.142v158.51h320.632v112.235h-320.61v429.255h479.12v-158.51z" />
    <glyph glyph-name="T" unicode="T" horiz-adv-x="530" 
d="M504.121 699.98v-158.51h-160.306v-541.49h-158.51v541.49h-160.306v158.51h479.121z" />
    <glyph glyph-name="U" unicode="U" 
d="M370.61 699.98h158.531v-700h-479.142v700h158.51v-541.49h162.101v541.49z" />
    <glyph glyph-name="V" unicode="V" horiz-adv-x="534" 
d="M350.142 699.98h158.511l-81.9482 -700h-319.756l-81.9482 700h158.51l63.3955 -541.49h39.8408z" />
    <glyph glyph-name="W" unicode="W" horiz-adv-x="891" 
d="M706.661 699.98h158.51l-81.9482 -700h-276.559l-61.5791 526.079l-61.5791 -526.079h-276.559l-81.9482 700h158.51l61.707 -527.127l61.7285 527.127h276.281l61.7285 -527.148z" />
    <glyph glyph-name="X" unicode="X" horiz-adv-x="666" 
d="M640.146 699.98l-168.385 -350l168.385 -350h-179.927l-127.646 265.316l-127.646 -265.316h-179.927l168.385 350l-168.385 350h179.927l127.646 -265.316l127.646 265.316h179.927z" />
    <glyph glyph-name="Y" unicode="Y" horiz-adv-x="646" 
d="M630.146 700l-228.317 -474.547v-225.453h-158.51v225.475l-228.317 474.525h179.927l127.646 -265.316l127.646 265.316h179.927z" />
    <glyph glyph-name="Z" unicode="Z" horiz-adv-x="533" 
d="M492.767 541.471h-0.213867l-273.652 -382.98h273.865v-158.51h-452.681v157.976h-0.0859375l0.0859375 0.106445v0.427734h0.27832l272.306 382.98h-272.583v158.51h452.681v-158.51z" />
    <glyph glyph-name="bracketleft" unicode="[" horiz-adv-x="288" 
d="M238.113 635.878h-40.376v-571.905h40.376v-106.721h-188.113v785.496h188.113v-106.87z" />
    <glyph glyph-name="backslash" unicode="\" horiz-adv-x="591" 
d="M180.884 767.757l406.299 -785.496h-179.884l-406.299 785.496h179.884z" />
    <glyph glyph-name="bracketright" unicode="]" horiz-adv-x="288" 
d="M50 742.748h188.113v-785.496h-188.113v106.764h40.376v572.012h-40.376v106.721z" />
    <glyph glyph-name="underscore" unicode="_" horiz-adv-x="592" 
d="M541.604 0.00195312h-491.604v158.51h491.604v-158.51z" />
    <glyph glyph-name="a" unicode="a" horiz-adv-x="577" 
d="M392.634 -0.0175781l-19.2803 164.58h-170.564l-19.2578 -164.58h-158.531l81.9482 700h362.269l81.9482 -700h-158.531zM221.362 323.072h133.46l-25.5635 218.4h-82.333z" />
    <glyph glyph-name="b" unicode="b" horiz-adv-x="570" 
d="M50 699.982h470.229v-270.745l-52.0459 -79.2549l52.0459 -79.2549v-270.745h-470.229v700zM361.719 158.492v60.3174l-28.5771 51.918h-124.61v-112.235h153.188zM333.142 429.237l28.5771 51.918v60.3174h-153.188v-112.235h124.61z" />
    <glyph glyph-name="c" unicode="c" 
d="M50 699.982h479.121v-208.396h-158.51v49.8867h-162.101v-382.98h162.101v49.8867h158.51v-208.396h-479.121v700z" />
    <glyph glyph-name="d" unicode="d" horiz-adv-x="576" 
d="M468.547 699.982l81.9688 -700h-500.516v700h418.547zM208.531 158.492h164.9l-44.8213 382.98h-120.079v-382.98z" />
    <glyph glyph-name="e" unicode="e" 
d="M529.142 541.473h-320.61v-112.235h162.079v-158.51h-162.079v-112.235h320.61v-158.51h-479.142v700h479.142v-158.51z" />
    <glyph glyph-name="f" unicode="f" horiz-adv-x="554" 
d="M529.142 541.473h-320.61v-112.235h162.079v-158.51h-162.079v-270.745h-158.531v700h479.142v-158.51z" />
    <glyph glyph-name="g" unicode="g" 
d="M208.51 158.492h162.102v112.257h-81.0508v158.51h239.561v-429.276h-479.121v700h479.12v-158.51h-320.61v-382.98z" />
    <glyph glyph-name="h" unicode="h" horiz-adv-x="570" 
d="M361.751 699.982h158.488v-700h-158.488v270.745h-153.188v-270.745h-158.553v700h158.553v-270.745h153.188v270.745z" />
    <glyph glyph-name="i" unicode="i" horiz-adv-x="259" 
d="M208.531 -0.0175781h-158.531v700h158.531v-700z" />
    <glyph glyph-name="j" unicode="j" 
d="M50 699.982h479.121v-700h-479.121v270.745h158.51v-112.235h162.101v382.98h-320.61v158.51z" />
    <glyph glyph-name="k" unicode="k" horiz-adv-x="583" 
d="M557.634 699.982l-168.385 -350l168.385 -350h-158.531l-130.254 270.745h-60.3389v-270.745h-158.51v700h158.51v-270.745h60.3389l130.254 270.745h158.531z" />
    <glyph glyph-name="l" unicode="l" horiz-adv-x="455" 
d="M208.521 158.492h230.52v-158.51h-389.029v700h158.51v-541.49z" />
    <glyph glyph-name="m" unicode="m" horiz-adv-x="688" 
d="M452.516 699.982h185.27v-700h-158.51v425.963l-134.87 -280.513l-0.470703 -1.17578l-0.0429688 0.0859375l-0.0429688 -0.0859375l-0.491211 1.17578l-134.827 280.471v-425.921h-158.531v700h185.292l108.602 -225.753z" />
    <glyph glyph-name="n" unicode="n" 
d="M370.781 699.982h158.531v-700h-158.531l-162.079 353.697v-353.697h-158.531v699.637l-0.170898 0.363281h158.702v-0.40625l162.079 -353.697v354.104z" />
    <glyph glyph-name="o" unicode="o" 
d="M50 699.982h479.142v-700h-479.142v700zM370.61 158.492v382.98h-162.101v-382.98h162.101z" />
    <glyph glyph-name="p" unicode="p" 
d="M50 699.982h479.12v-488.033h-320.61v-211.967h-158.51v700zM370.61 370.459v171.014h-162.101v-171.014h162.101z" />
    <glyph glyph-name="q" unicode="q" 
d="M50 699.982h479.142v-700h-129.334l23.4258 -113.219h-158.51l-23.4258 113.219h-191.298v700zM370.61 158.492v382.98h-162.101v-382.98h162.101z" />
    <glyph glyph-name="r" unicode="r" 
d="M50 699.982h479.12v-488.033h-103.236l103.236 -211.967h-158.51l-103.236 211.967h-58.8643v-211.967h-158.51v700zM370.61 370.459v171.014h-162.101v-171.014h162.101z" />
    <glyph glyph-name="s" unicode="s" 
d="M529.142 541.473h-320.61v-112.235h320.61v-429.255h-479.142v158.51h320.632v112.235h-320.61v429.255h479.12v-158.51z" />
    <glyph glyph-name="t" unicode="t" horiz-adv-x="530" 
d="M504.11 699.982v-158.51h-160.306v-541.49h-158.488v541.49h-160.306v158.51h479.1z" />
    <glyph glyph-name="u" unicode="u" 
d="M370.61 699.982h158.531v-700h-479.142v700h158.488v-541.49h162.122v541.49z" />
    <glyph glyph-name="v" unicode="v" horiz-adv-x="534" 
d="M350.142 699.982h158.511l-81.9482 -700h-319.756l-81.9482 700h158.51l63.3955 -541.49h39.8408z" />
    <glyph glyph-name="w" unicode="w" horiz-adv-x="891" 
d="M706.661 699.982h158.51l-81.9482 -700h-276.559l-61.5791 526.058l-61.5791 -526.058h-276.559l-81.9482 700h158.51l61.7285 -527.148l61.707 527.148h276.303l61.707 -527.148z" />
    <glyph glyph-name="x" unicode="x" horiz-adv-x="666" 
d="M640.146 699.982l-168.385 -350l168.385 -350h-179.927l-127.646 265.316l-127.646 -265.316h-179.927l168.385 350l-168.385 350h179.927l127.646 -265.316l127.646 265.316h179.927z" />
    <glyph glyph-name="y" unicode="y" horiz-adv-x="570" 
d="M361.719 699.98h158.51v-700h-470.229v158.51h311.719v112.235h-311.719v429.255h158.51v-270.745h153.209v270.745z" />
    <glyph glyph-name="z" unicode="z" horiz-adv-x="533" 
d="M492.79 541.47l-0.239258 -0.000976562l-273.65 -382.98h273.89v-158.51h-452.7v157.98h-0.0898438l0.0898438 0.129883v0.400391h0.290039l272.29 382.98h-272.58v158.51h452.7v-158.51z" />
    <glyph glyph-name="verticalbar" unicode="|" horiz-adv-x="259" 
d="M208.51 -42.7559h-158.51v785.496h158.51v-785.496z" />
    <glyph glyph-name="nonbreakingspace" unicode="&#xa0;" horiz-adv-x="291" 
 />
    <glyph glyph-name="exclamdown" unicode="&#xa1;" horiz-adv-x="299" 
d="M222.213 488.974l26.8457 -427.502v-61.4717h-199.057v61.4717l26.8457 427.502h145.365zM228.774 541.49h-158.51v158.531h158.51v-158.531z" />
    <glyph glyph-name="cent" unicode="&#xa2;" 
d="M368.815 699.991h160.306v-208.396h-158.51v49.8867h-162.101v-382.959h162.101v49.8652h158.51v-208.396h-160.306v-86.9287h-158.51v86.9287h-160.306v700h160.306v98.8125h158.51v-98.8125z" />
    <glyph glyph-name="sterling" unicode="&#xa3;" horiz-adv-x="626" 
d="M96.0508 700h479.12v-208.396h-158.51v49.8867h-162.101v-120.165h239.561v-158.51h-168.684l-28.1279 -104.306h119.353v49.8867h158.51v-208.396h-479.121l70.876 262.815h-151.927v158.51h81.0508v278.675z" />
    <glyph glyph-name="yen" unicode="&#xa5;" horiz-adv-x="715" 
d="M665.146 700l-186.165 -386.956h123.884v-85.8594h-165.2l-0.833984 -1.73145v-48.8398h166.012v-85.8594h-166.013v-90.7539h-158.51v90.7539h-166.033v85.8594h166.033v48.8613l-0.833984 1.70996h-165.179v85.8594h123.862l-186.168 386.956h179.927l127.646 -265.316
l127.646 265.316h179.927z" />
    <glyph glyph-name="copyright" unicode="&#xa9;" horiz-adv-x="873" 
d="M615.835 282.356v-188.498h-358.849v515.991h358.849v-196.342h-136.772v68.8672h-88.873v-270.403h88.873v70.3848h136.772zM50 783.064h772.778v-869.667h-772.778v869.667zM136.629 0.00488281h599.563v700.171h-599.563v-700.171z" />
    <glyph glyph-name="guillemotleft" unicode="&#xab;" horiz-adv-x="542" 
d="M322.155 700.021l-153.637 -350l153.637 -350.021h-118.477l-153.68 350.021l153.68 350h118.477zM492.378 700.021l-153.637 -350l153.637 -350.021h-118.477l-153.68 350.021l153.68 350h118.477z" />
    <glyph glyph-name="softhyphen" unicode="&#xad;" horiz-adv-x="0" 
 />
    <glyph glyph-name="registered" unicode="&#xae;" horiz-adv-x="873" 
d="M50 783.064h772.778v-869.667h-772.778v869.667zM736.171 0.00488281v700.171h-599.563v-700.171h599.563zM390.189 260.854v-166.996h-133.225v515.991h358.849v-348.995h-77.9082l92.9561 -166.995h-127.239l-92.9561 166.995h-20.4766zM479.041 482.373h-88.8516
v-94.2812h88.8516v94.2812z" />
    <glyph glyph-name="degree" unicode="&#xb0;" horiz-adv-x="355" 
d="M50 827.368h254.693v-254.693h-254.693v254.693zM208.51 668.858v62.3271h-62.3271v-62.3271h62.3271z" />
    <glyph glyph-name="guillemotright" unicode="&#xbb;" horiz-adv-x="542" 
d="M338.699 700.021l153.68 -350l-153.68 -350.021h-118.477l153.637 350.021l-153.637 350h118.477zM168.477 700.021l153.68 -350l-153.68 -350.021h-118.477l153.637 350.021l-153.637 350h118.477z" />
    <glyph glyph-name="questiondown" unicode="&#xbf;" 
d="M368.815 541.49h-158.51v158.531h158.51v-158.531zM529.1 158.488l0.0214844 -158.487h-479.12v337.068l181.637 151.905h123.414l13.7432 -69.6797l-160.306 -145.13v-115.677h162.122v119.716h158.488v-119.716z" />
    <glyph glyph-name="Agrave" unicode="&#xc0;" horiz-adv-x="577" 
d="M392.634 -0.00195312l-19.2803 164.58h-170.564l-19.2578 -164.58h-158.531l81.9482 700h362.269l81.9482 -700h-158.531zM221.362 323.088h133.46l-25.5635 218.4h-82.333zM352.45 783.998h-128.138l-45.8047 174.754h128.159z" />
    <glyph glyph-name="Aacute" unicode="&#xc1;" horiz-adv-x="577" 
d="M392.645 -0.00195312l-19.2803 164.58h-170.564l-19.2578 -164.58h-158.531l81.9482 700h362.269l81.9482 -700h-158.531zM221.373 323.088h133.46l-25.5635 218.4h-82.333zM397.667 958.752l-45.8047 -174.754h-128.138l45.8047 174.754h128.138z" />
    <glyph glyph-name="Acircumflex" unicode="&#xc2;" horiz-adv-x="577" 
d="M419.65 783.987h-263.093v124.932h263.093v-124.932zM392.655 -0.0126953l-19.2803 164.58h-170.564l-19.2578 -164.58h-158.553l81.9697 700h362.269l81.9482 -700h-158.531zM221.362 323.077h133.46l-25.5635 218.4h-82.333z" />
    <glyph glyph-name="Atilde" unicode="&#xc3;" horiz-adv-x="577" 
d="M419.65 783.998h-263.093v124.932h263.093v-124.932zM392.655 -0.00195312l-19.2803 164.58h-170.564l-19.2578 -164.58h-158.553l81.9697 700h362.269l81.9482 -700h-158.531zM221.362 323.088h133.46l-25.5635 218.4h-82.333z" />
    <glyph glyph-name="Adieresis" unicode="&#xc4;" horiz-adv-x="577" 
d="M260.991 783.979h-124.932v124.932h124.932v-124.932zM440.148 783.979h-124.932v124.932h124.932v-124.932zM392.655 -0.0214844l-19.2803 164.58h-170.564l-19.2578 -164.58h-158.553l81.9697 700h362.269l81.9482 -700h-158.531zM221.384 323.068h133.46
l-25.5635 218.4h-82.333z" />
    <glyph glyph-name="Aring" unicode="&#xc5;" horiz-adv-x="577" 
d="M350.559 783.979h-124.932v124.932h124.932v-124.932zM392.644 -0.0214844l-19.2803 164.58h-170.564l-19.2578 -164.58h-158.531l81.9482 700h362.269l81.9482 -700h-158.531zM221.351 323.068h133.46l-25.5635 218.4h-82.333z" />
    <glyph glyph-name="AE" unicode="&#xc6;" horiz-adv-x="791" 
d="M740.058 541.488h-256.489v-112.235h162.079v-158.51h-162.079v-112.235h256.488v-158.51h-415.02v164.58h-122.238l-19.2578 -164.58h-158.531l81.9482 700h633.1v-158.51zM325.059 323.088v218.4h-78.1221l-25.5635 -218.4h103.686z" />
    <glyph glyph-name="Ccedilla" unicode="&#xc7;" 
d="M50 700h479.121v-208.396h-158.51v49.8867h-162.101v-382.98h162.101v49.8867h158.51v-208.396h-160.284v-113.239h-158.531v113.239h-160.306v700z" />
    <glyph glyph-name="Egrave" unicode="&#xc8;" 
d="M529.142 541.488h-320.61v-112.235h162.079v-158.51h-162.079v-112.235h320.61v-158.51h-479.142v700h479.142v-158.51zM363.108 783.998h-128.138l-45.7832 174.754h128.138z" />
    <glyph glyph-name="Eacute" unicode="&#xc9;" 
d="M529.142 541.488h-320.61v-112.235h162.079v-158.51h-162.079v-112.235h320.61v-158.51h-479.142v700h479.142v-158.51zM401.005 958.752l-45.8047 -174.754h-128.138l45.8047 174.754h128.138z" />
    <glyph glyph-name="Ecircumflex" unicode="&#xca;" 
d="M529.131 541.469h-320.61v-112.235h162.101v-158.51h-162.101v-112.235h320.61v-158.51h-479.121v700h479.121v-158.51zM421.128 783.979h-263.093v124.932h263.093v-124.932z" />
    <glyph glyph-name="Edieresis" unicode="&#xcb;" 
d="M529.142 541.499h-320.61v-112.235h162.079v-158.51h-162.079v-112.235h320.61v-158.51h-479.142v700h479.142v-158.51zM262.437 783.987h-124.932v124.932h124.932v-124.932zM441.594 783.987h-124.932v124.932h124.932v-124.932z" />
    <glyph glyph-name="Igrave" unicode="&#xcc;" horiz-adv-x="259" 
d="M208.904 -0.00195312h-158.51v700h158.51v-700zM193.942 783.998h-128.138l-45.8047 174.754h128.138z" />
    <glyph glyph-name="Iacute" unicode="&#xcd;" horiz-adv-x="256" 
d="M208.531 -0.00195312h-158.531v700h158.531v-700zM235.783 958.752l-45.8047 -174.754h-128.138l45.8047 174.754h128.138z" />
    <glyph glyph-name="Icircumflex" unicode="&#xce;" horiz-adv-x="274" 
d="M215.812 -0.0214844h-158.553v700h158.553v-700zM268.094 783.979h-263.093v124.932h263.093v-124.932z" />
    <glyph glyph-name="Idieresis" unicode="&#xcf;" horiz-adv-x="315" 
d="M236.331 0.0107422h-158.531v700h158.531v-700zM129.931 783.989h-124.932v124.932h124.932v-124.932zM309.088 783.989h-124.932v124.932h124.932v-124.932z" />
    <glyph glyph-name="Eth" unicode="&#xd0;" horiz-adv-x="600" 
d="M492.948 699.989l81.9473 -700h-500.516v270.745h-69.3799v158.51h69.3799v270.745h418.568zM232.933 158.499h164.9l-44.8213 382.98h-120.079v-112.235h60.2744l20.1133 -158.51h-80.3877v-112.235z" />
    <glyph glyph-name="Ntilde" unicode="&#xd1;" 
d="M370.803 701.514l158.51 0.000976562v-700h-158.51l-162.058 353.612v-353.612h-158.553v699.572l-0.192383 0.427734h158.745v-0.470703l162.058 -353.634v354.104zM417.847 785.493h-263.093v124.932h263.093v-124.932z" />
    <glyph glyph-name="Ograve" unicode="&#xd2;" 
d="M50 699.998h479.142v-700h-479.142v700zM370.61 158.508v382.98h-162.101v-382.98h162.101zM345.347 783.998h-128.138l-45.7832 174.754h128.138z" />
    <glyph glyph-name="Oacute" unicode="&#xd3;" 
d="M50 699.998h479.142v-700h-479.142v700zM370.61 158.508v382.98h-162.101v-382.98h162.101zM382.451 958.752l-45.8047 -174.754h-128.138l45.8047 174.754h128.138z" />
    <glyph glyph-name="Ocircumflex" unicode="&#xd4;" 
d="M421.139 783.492h-263.093v124.932h263.093v-124.932zM50 699.514h479.142v-700h-479.142v700zM370.61 158.023v382.98h-162.101v-382.98h162.101z" />
    <glyph glyph-name="Otilde" unicode="&#xd5;" 
d="M421.117 783.492h-263.093v124.932h263.093v-124.932zM50 699.514h479.142v-700h-479.142v700zM370.61 158.023v382.98h-162.101v-382.98h162.101z" />
    <glyph glyph-name="Odieresis" unicode="&#xd6;" 
d="M50 700.009h479.142v-700h-479.142v700zM370.61 158.519v382.98h-162.101v-382.98h162.101zM262.458 783.987h-124.932v124.932h124.932v-124.932zM441.615 783.987h-124.932v124.932h124.932v-124.932z" />
    <glyph glyph-name="multiply" unicode="&#xd7;" horiz-adv-x="482" 
d="M432.451 254.057l-95.2637 -95.2637l-95.9482 95.9482l-95.9697 -95.9697l-95.2637 95.2852l95.9482 95.9482l-95.9268 95.9482l95.2637 95.2637l95.9482 -95.9268l95.9268 95.9268l95.2637 -95.2637l-95.9268 -95.9482z" />
    <glyph glyph-name="Oslash" unicode="&#xd8;" horiz-adv-x="582" 
d="M566.75 762.777l-35.1387 -63.8438v-698.932h-384.904l-36.0576 -65.4688h-95.6484l37.4473 68.0127v697.456h384.07l34.5615 62.7754h95.6699zM349.248 541.492h-138.29v-251.103zM233.999 158.512h139.081v252.534z" />
    <glyph glyph-name="Ugrave" unicode="&#xd9;" 
d="M370.61 699.998h158.531v-700h-479.142v700h158.51v-541.49h162.101v541.49zM345.367 783.998h-128.138l-45.8047 174.754h128.138z" />
    <glyph glyph-name="Uacute" unicode="&#xda;" 
d="M370.61 699.998h158.531v-700h-479.142v700h158.51v-541.49h162.101v541.49zM382.451 958.752l-45.8047 -174.754h-128.138l45.8047 174.754h128.138z" />
    <glyph glyph-name="Ucircumflex" unicode="&#xdb;" horiz-adv-x="570" 
d="M361.74 699.979h158.488v-700h-470.229v700h158.553v-541.49h153.188v541.49zM416.671 783.979h-263.093v124.932h263.093v-124.932z" />
    <glyph glyph-name="Udieresis" unicode="&#xdc;" 
d="M370.61 700.009h158.531v-700h-479.142v700h158.51v-541.49h162.101v541.49zM262.458 783.987h-124.932v124.932h124.932v-124.932zM441.615 783.987h-124.932v124.932h124.932v-124.932z" />
    <glyph glyph-name="Yacute" unicode="&#xdd;" horiz-adv-x="646" 
d="M630.146 700.009l-228.317 -474.568v-225.432h-158.531v225.453l-228.296 474.547h179.905l127.667 -265.316l127.646 265.316h179.927zM436.39 958.763l-45.7832 -174.754h-128.138l45.7832 174.754h128.138z" />
    <glyph glyph-name="Thorn" unicode="&#xde;" 
d="M208.51 580.094l320.61 -0.000976562v-488.033h-320.61v-92.0791h-158.51v700h158.51v-119.887zM370.61 250.569v171.014h-162.101v-171.014h162.101z" />
    <glyph glyph-name="germandbls" unicode="&#xdf;" 
d="M440.439 443.05h88.6592v-521.591h-237.765v158.51h79.2549v204.571h-162.079v-284.531h-158.51v700h390.439v-256.959zM208.51 541.499v-98.4492h73.4199v98.4492h-73.4199z" />
    <glyph glyph-name="agrave" unicode="&#xe0;" horiz-adv-x="577" 
d="M392.634 -0.00195312l-19.2803 164.58h-170.564l-19.2578 -164.58h-158.531l81.9482 700h362.269l81.9482 -700h-158.531zM221.362 323.088h133.46l-25.5635 218.4h-82.333zM352.45 783.998h-128.138l-45.8047 174.754h128.159z" />
    <glyph glyph-name="aacute" unicode="&#xe1;" horiz-adv-x="577" 
d="M392.645 -0.00195312l-19.2803 164.58h-170.564l-19.2578 -164.58h-158.531l81.9482 700h362.269l81.9482 -700h-158.531zM221.352 323.088h133.46l-25.5635 218.4h-82.333zM397.666 958.752l-45.8047 -174.754h-128.138l45.7832 174.754h128.159z" />
    <glyph glyph-name="acircumflex" unicode="&#xe2;" horiz-adv-x="577" 
d="M419.65 783.987h-263.093v124.932h263.093v-124.932zM392.655 -0.0126953l-19.2803 164.58h-170.564l-19.2578 -164.58h-158.553l81.9697 700h362.269l81.9482 -700h-158.531zM221.362 323.077h133.46l-25.5635 218.4h-82.333z" />
    <glyph glyph-name="atilde" unicode="&#xe3;" horiz-adv-x="577" 
d="M419.65 783.998h-263.093v124.932h263.093v-124.932zM392.655 -0.00195312l-19.2803 164.58h-170.564l-19.2578 -164.58h-158.553l81.9697 700h362.269l81.9482 -700h-158.531zM221.362 323.088h133.46l-25.5635 218.4h-82.333z" />
    <glyph glyph-name="adieresis" unicode="&#xe4;" horiz-adv-x="577" 
d="M260.991 783.979h-124.932v124.932h124.932v-124.932zM440.148 783.979h-124.932v124.932h124.932v-124.932zM392.655 -0.0214844l-19.2803 164.58h-170.564l-19.2578 -164.58h-158.553l81.9697 700h362.269l81.9482 -700h-158.531zM221.384 323.068h133.46
l-25.5635 218.4h-82.333z" />
    <glyph glyph-name="aring" unicode="&#xe5;" horiz-adv-x="577" 
d="M350.559 783.979h-124.932v124.932h124.932v-124.932zM392.644 -0.0214844l-19.2803 164.58h-170.564l-19.2578 -164.58h-158.531l81.9482 700h362.269l81.9482 -700h-158.531zM221.351 323.068h133.46l-25.5635 218.4h-82.333z" />
    <glyph glyph-name="ae" unicode="&#xe6;" horiz-adv-x="791" 
d="M740.058 541.488h-256.489v-112.235h162.079v-158.51h-162.079v-112.235h256.488v-158.51h-415.02v164.58h-122.238l-19.2578 -164.58h-158.531l81.9482 700h633.1v-158.51zM325.059 323.088v218.4h-78.1221l-25.5635 -218.4h103.686z" />
    <glyph glyph-name="ccedilla" unicode="&#xe7;" 
d="M50 700h479.121v-208.396h-158.51v49.8867h-162.101v-382.98h162.101v49.8867h158.51v-208.396h-160.284v-113.239h-158.531v113.239h-160.306v700z" />
    <glyph glyph-name="egrave" unicode="&#xe8;" 
d="M529.142 541.488h-320.61v-112.235h162.079v-158.51h-162.079v-112.235h320.61v-158.51h-479.142v700h479.142v-158.51zM363.108 783.998h-128.138l-45.7832 174.754h128.138z" />
    <glyph glyph-name="eacute" unicode="&#xe9;" 
d="M529.142 541.488h-320.61v-112.235h162.079v-158.51h-162.079v-112.235h320.61v-158.51h-479.142v700h479.142v-158.51zM401.005 958.752l-45.8047 -174.754h-128.138l45.8047 174.754h128.138z" />
    <glyph glyph-name="ecircumflex" unicode="&#xea;" 
d="M529.131 541.469h-320.61v-112.235h162.101v-158.51h-162.101v-112.235h320.61v-158.51h-479.121v700h479.121v-158.51zM421.128 783.979h-263.093v124.932h263.093v-124.932z" />
    <glyph glyph-name="edieresis" unicode="&#xeb;" 
d="M529.131 541.499h-320.61v-112.235h162.101v-158.51h-162.101v-112.235h320.61v-158.51h-479.121v700h479.121v-158.51zM262.447 783.987h-124.932v124.932h124.932v-124.932zM441.604 783.987h-124.932v124.932h124.932v-124.932z" />
    <glyph glyph-name="igrave" unicode="&#xec;" horiz-adv-x="259" 
d="M208.904 -0.00195312h-158.51v700h158.51v-700zM193.942 783.998h-128.138l-45.8047 174.754h128.138z" />
    <glyph glyph-name="iacute" unicode="&#xed;" horiz-adv-x="256" 
d="M208.531 -0.00195312h-158.531v700h158.531v-700zM235.783 958.752l-45.8047 -174.754h-128.138l45.8047 174.754h128.138z" />
    <glyph glyph-name="icircumflex" unicode="&#xee;" horiz-adv-x="274" 
d="M215.812 -0.0214844h-158.553v700h158.553v-700zM268.094 783.979h-263.093v124.932h263.093v-124.932z" />
    <glyph glyph-name="idieresis" unicode="&#xef;" horiz-adv-x="315" 
d="M236.331 0.0107422h-158.531v700h158.531v-700zM129.931 783.989h-124.932v124.932h124.932v-124.932zM309.088 783.989h-124.932v124.932h124.932v-124.932z" />
    <glyph glyph-name="eth" unicode="&#xf0;" horiz-adv-x="595" 
d="M492.948 699.989l81.9473 -700h-500.516v270.745h-69.3799v158.51h69.3799v270.745h418.568zM232.933 158.499h164.9l-44.8213 382.98h-120.079v-112.235h60.2744l20.1133 -158.51h-80.3877v-112.235z" />
    <glyph glyph-name="ntilde" unicode="&#xf1;" 
d="M370.78 699.51h158.53v-700h-158.53l-162.06 353.66v-353.66h-158.55v699.62l-0.169922 0.379883h158.72v-0.469727l162.06 -353.63v354.1zM417.851 783.49h-263.1v124.93h263.1v-124.93z" />
    <glyph glyph-name="ograve" unicode="&#xf2;" 
d="M50 699.998h479.142v-700h-479.142v700zM370.61 158.508v382.98h-162.101v-382.98h162.101zM345.347 783.998h-128.138l-45.7832 174.754h128.138z" />
    <glyph glyph-name="oacute" unicode="&#xf3;" 
d="M50 699.998h479.142v-700h-479.142v700zM370.61 158.508v382.98h-162.101v-382.98h162.101zM382.451 958.752l-45.8047 -174.754h-128.138l45.8047 174.754h128.138z" />
    <glyph glyph-name="ocircumflex" unicode="&#xf4;" 
d="M421.139 783.492h-263.093v124.932h263.093v-124.932zM50 699.514h479.142v-700h-479.142v700zM370.61 158.023v382.98h-162.101v-382.98h162.101z" />
    <glyph glyph-name="otilde" unicode="&#xf5;" 
d="M421.12 783.49h-263.1v124.93h263.1v-124.93zM50.001 699.51h479.14v-700h-479.14v700zM370.61 158.02v382.98h-162.1v-382.98h162.1z" />
    <glyph glyph-name="odieresis" unicode="&#xf6;" 
d="M50 700.009h479.142v-700h-479.142v700zM370.61 158.519v382.98h-162.101v-382.98h162.101zM262.458 783.987h-124.932v124.932h124.932v-124.932zM441.615 783.987h-124.932v124.932h124.932v-124.932z" />
    <glyph glyph-name="oslash" unicode="&#xf8;" horiz-adv-x="582" 
d="M566.75 762.76l-35.1396 -63.8203v-698.93h-384.9l-36.0596 -65.4697h-95.6504l37.4697 67.9902v697.46h384.07l34.5596 62.7695h95.6504zM349.25 541.499h-138.27v-251.1zM234 158.519h139.08v252.53z" />
    <glyph glyph-name="ugrave" unicode="&#xf9;" 
d="M370.61 699.998h158.531v-700h-479.142v700h158.51v-541.49h162.101v541.49zM345.367 783.998h-128.138l-45.8047 174.754h128.138z" />
    <glyph glyph-name="uacute" unicode="&#xfa;" 
d="M370.61 699.998h158.531v-700h-479.142v700h158.51v-541.49h162.101v541.49zM382.451 958.752l-45.8047 -174.754h-128.138l45.8047 174.754h128.138z" />
    <glyph glyph-name="ucircumflex" unicode="&#xfb;" horiz-adv-x="570" 
d="M361.74 699.979h158.488v-700h-470.229v700h158.553v-541.49h153.188v541.49zM416.671 783.979h-263.093v124.932h263.093v-124.932z" />
    <glyph glyph-name="udieresis" unicode="&#xfc;" 
d="M370.61 700.009h158.531v-700h-479.142v700h158.51v-541.49h162.101v541.49zM262.458 783.987h-124.932v124.932h124.932v-124.932zM441.615 783.987h-124.932v124.932h124.932v-124.932z" />
    <glyph glyph-name="yacute" unicode="&#xfd;" horiz-adv-x="646" 
d="M630.146 700.009l-228.317 -474.568v-225.432h-158.531v225.453l-228.296 474.547h179.905l127.667 -265.316l127.646 265.316h179.927zM436.39 958.763l-45.7832 -174.754h-128.138l45.7832 174.754h128.138z" />
    <glyph glyph-name="thorn" unicode="&#xfe;" 
d="M208.51 580.094l320.61 -0.000976562v-488.033h-320.61v-92.0791h-158.51v700h158.51v-119.887zM370.61 250.569v171.014h-162.101v-171.014h162.101z" />
    <glyph glyph-name="ydieresis" unicode="&#xff;" horiz-adv-x="646" 
d="M630.146 700.009l-228.317 -474.568v-225.432h-158.51v225.453l-228.317 474.547h179.927l127.646 -265.316l127.646 265.316h179.927zM295.471 783.987h-124.932v124.932h124.932v-124.932zM474.628 783.987h-124.932v124.932h124.932v-124.932z" />
    <glyph glyph-name="amacron" unicode="&#x101;" horiz-adv-x="577" 
d="M419.65 783.987h-263.093v124.932h263.093v-124.932zM392.655 -0.0126953l-19.2803 164.58h-170.564l-19.2578 -164.58h-158.553l81.9697 700h362.269l81.9482 -700h-158.531zM221.362 323.077h133.46l-25.5635 218.4h-82.333z" />
    <glyph glyph-name="Abreve" unicode="&#x102;" horiz-adv-x="577" 
d="M419.65 783.987h-263.093v124.932h263.093v-124.932zM392.655 -0.0126953l-19.2803 164.58h-170.564l-19.2578 -164.58h-158.553l81.9697 700h362.269l81.9482 -700h-158.531zM221.362 323.077h133.46l-25.5635 218.4h-82.333z" />
    <glyph glyph-name="abreve" unicode="&#x103;" horiz-adv-x="577" 
d="M419.65 783.987h-263.093v124.932h263.093v-124.932zM392.655 -0.0126953l-19.2803 164.58h-170.564l-19.2578 -164.58h-158.553l81.9697 700h362.269l81.9482 -700h-158.531zM221.362 323.077h133.46l-25.5635 218.4h-82.333z" />
    <glyph glyph-name="Aogonek" unicode="&#x104;" horiz-adv-x="623" 
d="M532.645 158.488l84.4268 0.000976562v-271.75h-158.531v113.239h-65.8965l-19.2578 164.58h-170.564l-19.2578 -164.58h-158.553l81.9697 700h362.269zM221.374 323.069h133.46l-25.5635 218.4h-82.333z" />
    <glyph glyph-name="aogonek" unicode="&#x105;" horiz-adv-x="623" 
d="M532.645 158.488l84.4268 0.000976562v-271.75h-158.531v113.239h-65.8965l-19.2578 164.58h-170.564l-19.2578 -164.58h-158.553l81.9697 700h362.269zM221.374 323.069h133.46l-25.5635 218.4h-82.333z" />
    <glyph glyph-name="Cacute" unicode="&#x106;" 
d="M50 699.998h479.121v-208.396h-158.51v49.8867h-162.101v-382.98h162.101v49.8867h158.51v-208.396h-479.121v700zM409.982 958.752l-45.8047 -174.754h-128.138l45.8047 174.754h128.138z" />
    <glyph glyph-name="cacute" unicode="&#x107;" 
d="M50 699.998h479.121v-208.396h-158.51v49.8867h-162.101v-382.98h162.101v49.8867h158.51v-208.396h-479.121v700zM410.004 958.752l-45.8047 -174.754h-128.138l45.8047 174.754h128.138z" />
    <glyph glyph-name="Cdot" unicode="&#x10a;" 
d="M50 699.979h479.121v-208.396h-158.51v49.8867h-162.101v-382.98h162.101v49.8867h158.51v-208.396h-479.121v700zM352.037 783.979h-124.932v124.932h124.932v-124.932z" />
    <glyph glyph-name="cdot" unicode="&#x10b;" 
d="M50 699.979h479.121v-208.396h-158.51v49.8867h-162.101v-382.98h162.101v49.8867h158.51v-208.396h-479.121v700zM352.037 783.979h-124.932v124.932h124.932v-124.932z" />
    <glyph glyph-name="Ccaron" unicode="&#x10c;" 
d="M421.117 783.998h-263.093v124.932h263.093v-124.932zM50 699.998h479.121v-208.396h-158.51v49.8867h-162.101v-382.98h162.101v49.8867h158.51v-208.396h-479.121v700z" />
    <glyph glyph-name="ccaron" unicode="&#x10d;" 
d="M421.117 783.987h-263.093v124.932h263.093v-124.932zM50 699.987h479.121v-208.396h-158.51v49.8867h-162.101v-382.98h162.101v49.8867h158.51v-208.396h-479.121v700z" />
    <glyph glyph-name="Dslash" unicode="&#x110;" horiz-adv-x="600" 
d="M492.948 699.989l81.9473 -700h-500.516v270.745h-69.3799v158.51h69.3799v270.745h418.568zM232.933 158.499h164.9l-44.8213 382.98h-120.079v-112.235h60.2744l20.1133 -158.51h-80.3877v-112.235z" />
    <glyph glyph-name="dmacron" unicode="&#x111;" horiz-adv-x="600" 
d="M492.95 700l81.9492 -700h-500.52v270.74h-69.3799v158.51h69.3799v270.75h418.57zM232.909 158.51h164.899l-44.8203 382.98h-120.08v-112.24h60.2803l20.1104 -158.51h-80.3896v-112.23z" />
    <glyph glyph-name="emacron" unicode="&#x113;" 
d="M529.142 541.469h-320.61v-112.235h162.079v-158.51h-162.079v-112.235h320.61v-158.51h-479.142v700h479.142v-158.51zM421.117 783.979h-263.093v124.932h263.093v-124.932z" />
    <glyph glyph-name="Edot" unicode="&#x116;" 
d="M529.142 541.479h-320.61v-112.235h162.079v-158.51h-162.079v-112.235h320.61v-158.51h-479.142v700h479.142v-158.51zM352.036 783.968h-124.932v124.932h124.932v-124.932z" />
    <glyph glyph-name="edot" unicode="&#x117;" 
d="M529.142 541.479h-320.61v-112.235h162.079v-158.51h-162.079v-112.235h320.61v-158.51h-479.142v700h479.142v-158.51zM352.036 783.968h-124.932v124.932h124.932v-124.932z" />
    <glyph glyph-name="Eogonek" unicode="&#x118;" 
d="M529.142 541.469h-320.61v-112.235h162.079v-158.51h-162.079v-112.235h320.61v-158.51h-159.664v-113.239h-158.531v113.239h-160.946v700h479.142v-158.51z" />
    <glyph glyph-name="eogonek" unicode="&#x119;" 
d="M529.142 541.469h-320.61v-112.235h162.079v-158.51h-162.079v-112.235h320.61v-158.51h-159.664v-113.239h-158.531v113.239h-160.946v700h479.142v-158.51z" />
    <glyph glyph-name="Ecaron" unicode="&#x11a;" 
d="M529.142 541.469h-320.61v-112.235h162.079v-158.51h-162.079v-112.235h320.61v-158.51h-479.142v700h479.142v-158.51zM421.117 783.979h-263.093v124.932h263.093v-124.932z" />
    <glyph glyph-name="ecaron" unicode="&#x11b;" 
d="M529.142 541.469h-320.61v-112.235h162.079v-158.51h-162.079v-112.235h320.61v-158.51h-479.142v700h479.142v-158.51zM421.117 783.979h-263.093v124.932h263.093v-124.932z" />
    <glyph glyph-name="Gdot" unicode="&#x120;" 
d="M208.51 158.499h162.101v112.235h-81.0508v158.51h239.561v-429.276h-158.51v0.0214844h-320.61v700h479.12v-158.51h-320.61v-382.98zM352.015 783.968h-124.932v124.932h124.932v-124.932z" />
    <glyph glyph-name="gdot" unicode="&#x121;" 
d="M208.51 158.499h162.101v112.235h-81.0508v158.51h239.561v-429.276h-158.51v0.0214844h-320.61v700h479.12v-158.51h-320.61v-382.98zM352.015 783.968h-124.932v124.932h124.932v-124.932z" />
    <glyph glyph-name="Hcircumflex" unicode="&#x124;" horiz-adv-x="570" 
d="M361.74 699.979h158.51v-700h-158.51v270.745h-153.188v-270.745h-158.553v700h158.553v-270.745h153.188v270.745zM416.672 783.979h-263.093v124.932h263.093v-124.932z" />
    <glyph glyph-name="hcircumflex" unicode="&#x125;" horiz-adv-x="570" 
d="M361.74 699.979h158.51v-700h-158.51v270.745h-153.188v-270.745h-158.553v700h158.553v-270.745h153.188v270.745zM416.672 783.979h-263.093v124.932h263.093v-124.932z" />
    <glyph glyph-name="Hbar" unicode="&#x126;" horiz-adv-x="572" 
d="M566.282 599.734v-79.2549h-45.5264v-520.501h-158.51v270.745h-153.188v-270.767h-158.553v520.501h-45.5049v79.2549h45.5049v100.266h158.553v-100.266h153.188v100.266h158.51v-100.244h45.5264zM362.267 429.233v91.2246h-153.188v-91.2246h153.188z" />
    <glyph glyph-name="hbar" unicode="&#x127;" horiz-adv-x="619" 
d="M247.938 443.041h320.61v-443.041h-158.51v284.531h-162.101v-284.531h-158.51v541.49h-84.4277v158.51h325.762v-158.51h-82.8242v-98.4492z" />
    <glyph glyph-name="imacron" unicode="&#x12b;" horiz-adv-x="274" 
d="M215.812 -0.0214844h-158.553v700h158.553v-700zM268.094 783.979h-263.093v124.932h263.093v-124.932z" />
    <glyph glyph-name="Lslash" unicode="&#x141;" horiz-adv-x="471" 
d="M224.981 158.49h230.52v-158.51h-389.051v381.292l-61.4502 25.7773v158.51l61.4502 -25.7773v160.198h158.531v-226.715l61.835 -25.9482v-158.51l-61.835 25.9482v-156.266z" />
    <glyph glyph-name="lslash" unicode="&#x142;" horiz-adv-x="471" 
d="M224.981 158.49h230.52v-158.51h-389.051v381.292l-61.4502 25.7773v158.51l61.4502 -25.7773v160.198h158.531v-226.715l61.835 -25.9482v-158.51l-61.835 25.9482v-156.266z" />
    <glyph glyph-name="Nacute" unicode="&#x143;" 
d="M370.781 699.989l158.51 0.000976562v-700h-158.51l-162.079 353.677v-353.677h-158.531v699.637l-0.170898 0.363281h158.702v-0.427734l162.079 -353.677v354.104zM400.277 958.744l-45.8047 -174.754h-128.138l45.8047 174.754h128.138z" />
    <glyph glyph-name="nacute" unicode="&#x144;" 
d="M370.781 699.989l158.51 0.000976562v-700h-158.51l-162.079 353.677v-353.677h-158.531v699.637l-0.170898 0.363281h158.702v-0.427734l162.079 -353.677v354.104zM400.277 958.744l-45.8047 -174.754h-128.138l45.8047 174.754h128.138z" />
    <glyph glyph-name="Ncaron" unicode="&#x147;" 
d="M370.803 699.514l158.51 0.000976562v-700h-158.51l-162.058 353.612v-353.612h-158.553v699.572l-0.192383 0.427734h158.745v-0.470703l162.058 -353.634v354.104zM417.847 783.493h-263.093v124.932h263.093v-124.932z" />
    <glyph glyph-name="ncaron" unicode="&#x148;" 
d="M370.78 699.51h158.53v-700h-158.53l-162.06 353.66v-353.66h-158.55v699.62l-0.169922 0.379883h158.72v-0.469727l162.06 -353.63v354.1zM417.851 783.49h-263.1v124.93h263.1v-124.93z" />
    <glyph glyph-name="omacron" unicode="&#x14d;" 
d="M421.139 783.492h-263.093v124.932h263.093v-124.932zM50 699.514h479.142v-700h-479.142v700zM370.61 158.023v382.98h-162.101v-382.98h162.101z" />
    <glyph glyph-name="Ohungarumlaut" unicode="&#x150;" 
d="M50 699.998h479.142v-700h-479.142v700zM370.61 158.508v382.98h-162.101v-382.98h162.101zM312.687 958.752l-45.7832 -174.754h-92.165l45.8047 174.754h92.1436zM457.944 958.752l-45.7832 -174.754h-92.165l45.7832 174.754h92.165z" />
    <glyph glyph-name="ohungarumlaut" unicode="&#x151;" 
d="M50 699.998h479.142v-700h-479.142v700zM370.61 158.508v382.98h-162.101v-382.98h162.101zM312.687 958.752l-45.7832 -174.754h-92.165l45.8047 174.754h92.1436zM457.944 958.752l-45.7832 -174.754h-92.165l45.7832 174.754h92.165z" />
    <glyph glyph-name="OE" unicode="&#x152;" horiz-adv-x="836" 
d="M785.631 541.49h-256.488v-112.235h162.079v-158.51h-162.101v-112.235h256.488v-158.51h-735.609v700h735.631v-158.51zM370.611 158.51v382.98h-162.101v-382.98h162.101z" />
    <glyph glyph-name="oe" unicode="&#x153;" horiz-adv-x="836" 
d="M785.631 541.499h-256.488l-0.0214844 -112.235h162.079v-158.51h-162.079v-112.235h256.488v-158.51h-735.609v700h735.631v-158.51zM370.611 158.519v382.98h-162.101v-382.98h162.101z" />
    <glyph glyph-name="Rcaron" unicode="&#x158;" 
d="M50 700.007h479.12v-488.033h-103.236l103.236 -211.967h-158.51l-103.236 211.967h-58.8643v-211.967h-158.51v700zM370.61 370.483v171.014h-162.101v-171.014h162.101zM421.117 796.041h-263.093v124.932h263.093v-124.932z" />
    <glyph glyph-name="rcaron" unicode="&#x159;" 
d="M50 700.007h479.12v-488.033h-103.236l103.236 -211.967h-158.51l-103.236 211.967h-58.8643v-211.967h-158.51v700zM370.61 370.483v171.014h-162.101v-171.014h162.101zM421.117 796.041h-263.093v124.932h263.093v-124.932z" />
    <glyph glyph-name="Sacute" unicode="&#x15a;" 
d="M529.142 541.488h-320.61v-112.235h320.61v-429.255h-479.142v158.51h320.632v112.235h-320.61v429.255h479.12v-158.51zM416.522 958.752l-45.7832 -174.754h-128.138l45.7832 174.754h128.138z" />
    <glyph glyph-name="sacute" unicode="&#x15b;" 
d="M529.142 541.488h-320.61v-112.235h320.61v-429.255h-479.142v158.51h320.632v112.235h-320.61v429.255h479.12v-158.51zM416.522 958.752l-45.7832 -174.754h-128.138l45.7832 174.754h128.138z" />
    <glyph glyph-name="Scircumflex" unicode="&#x15c;" 
d="M529.142 541.488h-320.61v-112.235h320.61v-429.255h-479.142v158.51h320.632v112.235h-320.61v429.255h479.12v-158.51zM421.117 783.998h-263.093v124.932h263.093v-124.932z" />
    <glyph glyph-name="scircumflex" unicode="&#x15d;" 
d="M529.142 541.488h-320.61v-112.235h320.61v-429.255h-479.142v158.51h320.632v112.235h-320.61v429.255h479.12v-158.51zM421.117 783.998h-263.093v124.932h263.093v-124.932z" />
    <glyph glyph-name="Scedilla" unicode="&#x15e;" 
d="M529.163 541.49h-320.609v-112.235h320.61v-429.255h-160.327v-86.9492h-158.51v86.9492h-160.327v158.51h320.653v112.235h-320.61v429.255h479.12v-158.51z" />
    <glyph glyph-name="scedilla" unicode="&#x15f;" 
d="M529.163 541.481h-320.609v-112.214h320.61v-429.276h-160.327v-86.9287h-158.51v86.9287h-160.327v158.531h320.653v112.214h-320.61v429.255h479.12v-158.51z" />
    <glyph glyph-name="Scaron" unicode="&#x160;" 
d="M529.142 541.488h-320.61v-112.235h320.61v-429.255h-479.142v158.51h320.632v112.235h-320.61v429.255h479.12v-158.51zM421.117 783.998h-263.093v124.932h263.093v-124.932z" />
    <glyph glyph-name="scaron" unicode="&#x161;" 
d="M529.142 541.488h-320.61v-112.235h320.61v-429.255h-479.142v158.51h320.632v112.235h-320.61v429.255h479.12v-158.51zM421.117 783.998h-263.093v124.932h263.093v-124.932z" />
    <glyph glyph-name="tcedilla" unicode="&#x163;" horiz-adv-x="530" 
d="M504.121 541.471h-160.305v-400.271h79.2549l-40.376 -230.434h-118.135v89.2148h-79.2549v541.49h-160.306v158.51h479.121v-158.51z" />
    <glyph glyph-name="Tbar" unicode="&#x166;" horiz-adv-x="530" 
d="M504.121 541.471h-160.306v-158.51h96.1836v-79.2549h-96.1836v-303.726h-158.51v303.726h-96.1836v79.2549h96.1836v158.51h-160.306v158.51h479.121v-158.51z" />
    <glyph glyph-name="tbar" unicode="&#x167;" horiz-adv-x="530" 
d="M504.121 541.471h-160.306v-158.51h96.1836v-79.2549h-96.1836v-303.726h-158.51v303.726h-96.1836v79.2549h96.1836v158.51h-160.306v158.51h479.121v-158.51z" />
    <glyph glyph-name="umacron" unicode="&#x16b;" horiz-adv-x="570" 
d="M361.74 699.979h158.488v-700h-470.229v700h158.553v-541.49h153.188v541.49zM416.671 783.979h-263.093v124.932h263.093v-124.932z" />
    <glyph glyph-name="ubreve" unicode="&#x16d;" horiz-adv-x="570" 
d="M361.74 699.979h158.488v-700h-470.229v700h158.553v-541.49h153.188v541.49zM416.671 783.979h-263.093v124.932h263.093v-124.932z" />
    <glyph glyph-name="Uring" unicode="&#x16e;" 
d="M370.61 699.989h158.531v-700h-479.142v700h158.51v-541.49h162.101v541.49zM352.036 783.968h-124.932v124.932h124.932v-124.932z" />
    <glyph glyph-name="uring" unicode="&#x16f;" 
d="M370.61 699.989h158.531v-700h-479.142v700h158.51v-541.49h162.101v541.49zM352.036 783.968h-124.932v124.932h124.932v-124.932z" />
    <glyph glyph-name="Uhungarumlaut" unicode="&#x170;" 
d="M370.61 699.998h158.531v-700h-479.142v700h158.51v-541.49h162.101v541.49zM312.687 958.752l-45.8047 -174.754h-92.1436l45.7832 174.754h92.165zM457.944 958.752l-45.8047 -174.754h-92.165l45.8047 174.754h92.165z" />
    <glyph glyph-name="uhungarumlaut" unicode="&#x171;" 
d="M370.61 699.998h158.531v-700h-479.142v700h158.51v-541.49h162.101v541.49zM312.687 958.752l-45.8047 -174.754h-92.1436l45.7832 174.754h92.165zM457.944 958.752l-45.8047 -174.754h-92.165l45.8047 174.754h92.165z" />
    <glyph glyph-name="Ydieresis" unicode="&#x178;" horiz-adv-x="646" 
d="M630.146 700.009l-228.317 -474.568v-225.432h-158.51v225.453l-228.317 474.547h179.927l127.646 -265.316l127.646 265.316h179.927zM295.471 783.987h-124.932v124.932h124.932v-124.932zM474.628 783.987h-124.932v124.932h124.932v-124.932z" />
    <glyph glyph-name="Zacute" unicode="&#x179;" horiz-adv-x="533" 
d="M492.767 541.488h-0.213867l-273.652 -382.98h273.865v-158.51h-452.681v157.954l-0.0859375 0.0214844l0.0859375 0.106445v0.427734h0.27832l272.306 382.98h-272.583v158.51h452.681v-158.51zM379.612 958.752l-45.8047 -174.754h-128.138l45.8047 174.754h128.138z
" />
    <glyph glyph-name="zacute" unicode="&#x17a;" horiz-adv-x="533" 
d="M492.767 541.488h-0.213867l-273.652 -382.98h273.865v-158.51h-452.681v157.954l-0.0859375 0.0214844l0.0859375 0.106445v0.427734h0.27832l272.306 382.98h-272.583v158.51h452.681v-158.51zM379.612 958.752l-45.8047 -174.754h-128.138l45.8047 174.754h128.138z
" />
    <glyph glyph-name="Zdot" unicode="&#x17b;" horiz-adv-x="533" 
d="M492.788 541.488h-0.234375l-273.652 -382.98h273.887v-158.51h-452.702v157.954l-0.0859375 0.0214844l0.0859375 0.106445v0.427734h0.298828l272.284 382.98h-272.583v158.51h452.702v-158.51zM328.85 783.977h-124.932v124.932h124.932v-124.932z" />
    <glyph glyph-name="zdot" unicode="&#x17c;" horiz-adv-x="534" 
d="M492.788 541.488h-0.234375l-273.652 -382.98h273.887v-158.51h-452.702v157.954l-0.0859375 0.0214844l0.0859375 0.106445v0.427734h0.298828l272.284 382.98h-272.583v158.51h452.702v-158.51zM328.85 783.977h-124.932v124.932h124.932v-124.932z" />
    <glyph glyph-name="Zcaron" unicode="&#x17d;" horiz-adv-x="533" 
d="M492.767 541.488h-0.213867l-273.652 -382.98h273.865v-158.51h-452.681v157.954l-0.0859375 0.0214844l0.0859375 0.106445v0.427734h0.27832l272.306 382.98h-272.583v158.51h452.681v-158.51zM397.973 783.998h-263.093v124.932h263.093v-124.932z" />
    <glyph glyph-name="zcaron" unicode="&#x17e;" horiz-adv-x="533" 
d="M492.77 541.49h-0.240234l-273.63 -382.98h273.87v-158.51h-452.71v157.95l-0.0595703 0.0195312l0.0595703 0.110352v0.429688h0.299805l272.29 382.98h-272.59v158.51h452.71v-158.51zM397.97 784h-263.09v124.93h263.09v-124.93z" />
    <glyph glyph-name="Schwa" unicode="&#x18f;" 
d="M50 700.002h479.142v-700h-479.142v429.255h320.61v112.235h-320.61v158.51zM370.61 158.512v112.235h-162.079v-112.235h162.079z" />
    <glyph glyph-name="Scommaaccent" unicode="&#x218;" 
d="M529.163 541.49h-320.609v-112.235h320.61v-429.255h-160.327v-86.9492h-158.51v86.9492h-160.327v158.51h320.653v112.235h-320.61v429.255h479.12v-158.51z" />
    <glyph glyph-name="scommaaccent" unicode="&#x219;" 
d="M529.163 541.49h-320.609v-112.235h320.61v-429.255h-160.327v-86.9492h-158.51v86.9492h-160.327v158.51h320.653v112.235h-320.61v429.255h479.12v-158.51z" />
    <glyph glyph-name="schwa" unicode="&#x259;" 
d="M50 700.009h479.142v-700h-479.142v429.255h320.61v112.235h-320.61v158.51zM370.61 158.519v112.235h-162.079v-112.235h162.079z" />
    <glyph glyph-name="Iocyrillic" unicode="&#x401;" 
d="M529.142 541.499h-320.61v-112.235h162.079v-158.51h-162.079v-112.235h320.61v-158.51h-479.142v700h479.142v-158.51zM262.458 783.987h-124.932v124.932h124.932v-124.932zM441.594 783.987h-124.932v124.932h124.932v-124.932z" />
    <glyph glyph-name="Djecyrillic" unicode="&#x402;" horiz-adv-x="626" 
d="M254.777 443.041h320.611v-443.041h-237.765v158.51h79.2334v126.021h-162.079v-284.531h-158.51v541.49h-91.2676v158.51h341.044v-158.51h-91.2676v-98.4492z" />
    <glyph glyph-name="Gjecyrillic" unicode="&#x403;" horiz-adv-x="465" 
d="M439.051 700.009v-158.51h-230.52v-541.49h-158.531v700h389.051zM354.88 958.763l-45.8047 -174.754h-128.138l45.8047 174.754h128.138z" />
    <glyph glyph-name="Ecyrillic" unicode="&#x404;" 
d="M50 700h479.121v-208.396h-158.51v49.8867h-162.101v-112.235h162.101v-158.51h-162.101v-112.235h162.101v49.8867h158.51v-208.396h-479.121v700z" />
    <glyph glyph-name="Dzecyrillic" unicode="&#x405;" 
d="M529.142 541.471h-320.61v-112.235h320.61v-429.255h-479.142v158.51h320.632v112.235h-320.61v429.255h479.12v-158.51z" />
    <glyph glyph-name="Icyrillic" unicode="&#x406;" horiz-adv-x="259" 
d="M208.531 -0.0195312h-158.531v700h158.531v-700z" />
    <glyph glyph-name="Yicyrillic" unicode="&#x407;" horiz-adv-x="315" 
d="M236.331 0.0107422h-158.531v700h158.531v-700zM129.931 783.989h-124.932v124.932h124.932v-124.932zM309.088 783.989h-124.932v124.932h124.932v-124.932z" />
    <glyph glyph-name="Jecyrillic" unicode="&#x408;" 
d="M50 699.98h479.121v-700h-479.121v270.745h158.51v-112.235h162.101v382.98h-320.61v158.51z" />
    <glyph glyph-name="Ljecyrillic" unicode="&#x409;" horiz-adv-x="899" 
d="M526.869 429.255h321.208v-429.255h-479.74v541.49h-98.7051l-63.374 -541.49h-201.258v158.51h61.2793l63.3955 541.49h397.194v-270.745zM526.868 158.51h162.678v112.235h-162.678v-112.235z" />
    <glyph glyph-name="Njecyrillic" unicode="&#x40a;" horiz-adv-x="891" 
d="M520.229 429.255h320.611v-429.255h-479.1v270.745h-153.188v-270.745h-158.553v700h158.553v-270.745h153.166v270.745h158.51v-270.745zM520.229 158.51h162.101v112.235h-162.101v-112.235z" />
    <glyph glyph-name="Tshecyrillic" unicode="&#x40b;" horiz-adv-x="619" 
d="M247.938 443.041h320.61v-443.041h-158.51v284.531h-162.101v-284.531h-158.51v541.49h-84.4277v158.51h325.762v-158.51h-82.8242v-98.4492z" />
    <glyph glyph-name="Kjecyrillic" unicode="&#x40c;" horiz-adv-x="583" 
d="M557.612 700.009l-168.385 -350l168.385 -350h-158.531l-130.254 270.745h-60.3174v-270.745h-158.51v700h158.51v-270.745h60.3174l130.254 270.745h158.531zM391.365 958.763l-45.8047 -174.754h-128.138l45.7832 174.754h128.159z" />
    <glyph glyph-name="Ushortcyrillic" unicode="&#x40e;" horiz-adv-x="570" 
d="M416.65 783.989h-263.093v124.932h263.093v-124.932zM361.72 700.011h158.511v-700h-470.229v158.51h311.719v112.235h-311.719v429.255h158.51v-270.745h153.209v270.745z" />
    <glyph glyph-name="Dzhecyrillic" unicode="&#x40f;" 
d="M370.61 700h158.532v-700h-160.306v-113.239h-158.531v113.239h-160.306v700h158.51v-541.49h162.101v541.49z" />
    <glyph glyph-name="Acyrillic" unicode="&#x410;" horiz-adv-x="577" 
d="M392.634 -0.0195312l-19.2803 164.58h-170.564l-19.2578 -164.58h-158.531l81.9482 700h362.269l81.9482 -700h-158.531zM221.362 323.07h133.46l-25.5635 218.4h-82.333z" />
    <glyph glyph-name="Becyrillic" unicode="&#x411;" horiz-adv-x="576" 
d="M486.394 429.255l64.1221 -429.255h-500.516v700h479.142v-158.51h-320.61v-112.235h277.862zM208.531 158.51h159.771l-16.7568 112.235h-143.014v-112.235z" />
    <glyph glyph-name="Vecyrillic" unicode="&#x412;" horiz-adv-x="570" 
d="M439.521 429.255h80.708v-429.255h-470.229v700h470.101zM306.702 541.49h-98.1924v-112.235h66.1104zM208.51 158.51h153.188v112.235h-153.188v-112.235z" />
    <glyph glyph-name="Gecyrillic" unicode="&#x413;" horiz-adv-x="465" 
d="M439.051 700.009v-158.51h-230.52v-541.49h-158.531v700h389.051z" />
    <glyph glyph-name="Decyrillic" unicode="&#x414;" horiz-adv-x="584" 
d="M526.869 158.519h51.7676v-257.664h-158.531v99.1543h-256.574v-99.1543h-158.531v257.664h61.2793l63.3955 541.49h397.194v-541.49zM224.789 158.519h143.569v382.98h-98.7266z" />
    <glyph glyph-name="Iecyrillic" unicode="&#x415;" 
d="M529.142 541.471h-320.61v-112.235h162.079v-158.51h-162.079v-112.235h320.61v-158.51h-479.142v700h479.142v-158.51z" />
    <glyph glyph-name="Zhecyrillic" unicode="&#x416;" horiz-adv-x="878" 
d="M852.967 700.009l-168.385 -350l168.385 -350h-167.872l-130.254 270.745h-36.3789v-270.745h-158.938v270.745h-36.3789l-130.274 -270.745h-167.872l168.406 350l-168.406 350h167.872l130.274 -270.745h36.3789v270.745h158.938v-270.745h36.3789l130.254 270.745
h167.872z" />
    <glyph glyph-name="Zecyrillic" unicode="&#x417;" 
d="M529.142 700l-143.333 -270.745h143.334v-429.255h-479.142v158.51h320.61v112.235h-235.691l143.312 270.745h-228.232v158.51h479.142z" />
    <glyph glyph-name="Iicyrillic" unicode="&#x418;" 
d="M529.292 700.009l-0.170898 -0.364258v-699.637h-158.531v353.677l-162.079 -353.677h-158.51v700h158.51v-354.104l162.079 353.677v0.427734h158.702z" />
    <glyph glyph-name="Iishortcyrillic" unicode="&#x419;" 
d="M529.292 700.009l-0.149414 -0.385742v-699.615h-158.553v353.655l-162.079 -353.655h-158.51v700h158.51v-354.125l162.079 353.655v0.470703h158.702zM424.56 783.986h-263.093v124.932h263.093v-124.932z" />
    <glyph glyph-name="Kacyrillic" unicode="&#x41a;" horiz-adv-x="567" 
d="M516.98 700v-191.084l-118.391 -158.916l118.391 -158.916v-191.084h-167.829v158.51l-85.4746 112.235h-55.166v-270.745h-158.51v700h158.51v-270.745h50.25l90.3906 114.629v156.116h167.829z" />
    <glyph glyph-name="Elcyrillic" unicode="&#x41b;" horiz-adv-x="587" 
d="M139.686 700.009h397.193v-700h-158.531v541.49h-98.7051l-63.3955 -541.49h-201.236v158.51h61.2793z" />
    <glyph glyph-name="Emcyrillic" unicode="&#x41c;" horiz-adv-x="688" 
d="M452.495 699.98h185.27v-700h-158.51v425.963l-134.849 -280.513l-0.491211 -1.17578l-0.0429688 0.0859375l-0.0429688 -0.0859375l-0.470703 1.17578l-134.849 280.471v-425.921h-158.51v700h185.271l108.602 -225.774z" />
    <glyph glyph-name="Encyrillic" unicode="&#x41d;" horiz-adv-x="570" 
d="M361.719 699.98h158.51v-700h-158.51v270.745h-153.166v-270.745h-158.553v700h158.553v-270.745h153.166v270.745z" />
    <glyph glyph-name="Ocyrillic" unicode="&#x41e;" 
d="M50 699.98h479.142v-700h-479.142v700zM370.61 158.49v382.98h-162.101v-382.98h162.101z" />
    <glyph glyph-name="Pecyrillic" unicode="&#x41f;" 
d="M50 700.009h479.142v-700h-158.51v541.49h-162.101v-541.49h-158.531v700z" />
    <glyph glyph-name="Ercyrillic" unicode="&#x420;" 
d="M50 699.98h479.12v-488.033h-320.61v-211.967h-158.51v700zM370.61 370.457v171.014h-162.101v-171.014h162.101z" />
    <glyph glyph-name="Escyrillic" unicode="&#x421;" 
d="M50 699.98h479.121v-208.396h-158.51v49.8867h-162.101v-382.98h162.101v49.8867h158.51v-208.396h-479.121v700z" />
    <glyph glyph-name="Tecyrillic" unicode="&#x422;" horiz-adv-x="530" 
d="M504.121 699.98v-158.51h-160.306v-541.49h-158.51v541.49h-160.306v158.51h479.121z" />
    <glyph glyph-name="Ucyrillic" unicode="&#x423;" horiz-adv-x="570" 
d="M361.719 699.98h158.51v-700h-470.229v158.51h311.719v112.235h-311.719v429.255h158.51v-270.745h153.209v270.745z" />
    <glyph glyph-name="Efcyrillic" unicode="&#x424;" horiz-adv-x="814" 
d="M486.372 700h277.862v-699.979h-277.862v-79.2549h-158.51v79.2549h-277.862v699.979h277.862v79.2549h158.51v-79.2549zM208.509 158.51h119.353v382.98h-119.353v-382.98zM605.724 158.51v382.98h-119.353v-382.98h119.353z" />
    <glyph glyph-name="Khacyrillic" unicode="&#x425;" horiz-adv-x="602" 
d="M468.702 270.745l102.938 -270.745h-167.872l-102.938 270.745h-0.0214844l-102.938 -270.745h-167.872l102.938 270.745h-85.0684v429.255h158.51v-270.745h188.861v270.745h158.531v-429.255h-85.0684z" />
    <glyph glyph-name="Tsecyrillic" unicode="&#x426;" horiz-adv-x="566" 
d="M481.414 158.51h79.2773v-257.664h-158.553v99.1543h-352.138v700h158.51v-541.49h114.394v541.49h158.51v-541.49z" />
    <glyph glyph-name="Checyrillic" unicode="&#x427;" horiz-adv-x="570" 
d="M361.719 700h158.51v-700h-158.51v270.745h-311.719v429.255h158.51v-270.745h153.209v270.745z" />
    <glyph glyph-name="Shacyrillic" unicode="&#x428;" horiz-adv-x="804" 
d="M595.786 700h158.51v-700h-704.296v700h158.553v-541.49h114.352v541.49h158.51v-541.49h114.372v541.49z" />
    <glyph glyph-name="Shchacyrillic" unicode="&#x429;" horiz-adv-x="839" 
d="M754.254 158.51h79.2764v-257.664h-158.51v99.1543h-625.02v700h158.51v-541.49h114.372v541.49h158.531v-541.49h114.33v541.49h158.51v-541.49z" />
    <glyph glyph-name="Hardsigncyrillic" unicode="&#x42a;" horiz-adv-x="634" 
d="M263.241 488.033h320.61v-488.033h-479.12v541.49h-99.7314v158.51h258.241v-211.967zM263.241 158.51h162.101v171.014h-162.101v-171.014z" />
    <glyph glyph-name="Yericyrillic" unicode="&#x42b;" horiz-adv-x="802" 
d="M752.052 -0h-158.51v700h158.51v-700zM208.51 488.033h320.611v-488.033h-479.121v700h158.51v-211.967zM208.511 158.51h162.101v171.014h-162.101v-171.014z" />
    <glyph glyph-name="Softsigncyrillic" unicode="&#x42c;" 
d="M208.51 488.033h320.611v-488.033h-479.121v700h158.51v-211.967zM208.489 158.51h162.101v171.014h-162.101v-171.014z" />
    <glyph glyph-name="Ereversedcyrillic" unicode="&#x42d;" 
d="M50 700h479.121v-700h-479.121v208.396h158.51v-49.8867h162.101v112.235h-162.101v158.51h162.101v112.235h-162.101v-49.8867h-158.51v208.396z" />
    <glyph glyph-name="IUcyrillic" unicode="&#x42e;" horiz-adv-x="831" 
d="M302.106 700h479.143v-700h-479.142v270.745h-93.5547v-270.745h-158.553v700h158.553v-270.745h93.5537v270.745zM622.718 158.51v382.98h-162.101v-382.98h162.101z" />
    <glyph glyph-name="IAcyrillic" unicode="&#x42f;" 
d="M50 700h479.12v-700h-158.51v211.967h-58.8643l-103.236 -211.967h-158.51l103.236 211.967h-103.236v488.033zM370.61 370.477v171.014h-162.101v-171.014h162.101z" />
    <glyph glyph-name="acyrillic" unicode="&#x430;" horiz-adv-x="577" 
d="M392.634 0.00878906l-19.2803 164.58h-170.564l-19.2578 -164.58h-158.531l81.9482 700h362.269l81.9482 -700h-158.531zM221.362 323.099h133.46l-25.5635 218.4h-82.333z" />
    <glyph glyph-name="becyrillic" unicode="&#x431;" 
d="M529.142 541.499h-320.61v-112.235h320.61v-429.255h-479.142v700h479.142v-158.51zM370.61 270.754h-162.079v-112.235h162.079v112.235z" />
    <glyph glyph-name="vecyrillic" unicode="&#x432;" horiz-adv-x="570" 
d="M520.229 700.009v-270.745l-52.0459 -79.2549l52.0459 -79.2549v-270.745h-470.229v700h470.229zM361.719 158.519v60.3174l-28.5771 51.918h-124.61v-112.235h153.188zM333.12 429.264l28.5771 51.918v60.3174h-153.188v-112.235h124.61z" />
    <glyph glyph-name="gecyrillic" unicode="&#x433;" horiz-adv-x="465" 
d="M439.051 700.009v-158.51h-230.52v-541.49h-158.531v700h389.051z" />
    <glyph glyph-name="decyrillic" unicode="&#x434;" horiz-adv-x="584" 
d="M526.87 158.52h51.7705v-257.67h-158.53v99.1602h-256.58v-99.1602h-158.53v257.67h61.2803l63.3896 541.49h397.2v-541.49zM224.791 158.52h143.57v382.98h-98.7305z" />
    <glyph glyph-name="iecyrillic" unicode="&#x435;" 
d="M529.131 541.499h-320.61v-112.235h162.101v-158.51h-162.101v-112.235h320.61v-158.51h-479.121v700h479.121v-158.51z" />
    <glyph glyph-name="zhecyrillic" unicode="&#x436;" horiz-adv-x="878" 
d="M852.945 700.009l-168.385 -350l168.385 -350h-167.851l-130.274 270.745h-36.3789v-270.745h-158.938v270.745h-36.3789l-130.274 -270.745h-167.851l168.385 350l-168.385 350h167.851l130.274 -270.745h36.3789v270.745h158.938v-270.745h36.3789l130.274 270.745
h167.851z" />
    <glyph glyph-name="zecyrillic" unicode="&#x437;" horiz-adv-x="543" 
d="M50 700.009h452.702v-158.51h-0.235352l-146.327 -191.49l146.327 -191.49h0.235352v-158.51h-452.702v158.51h259.16l-146.306 191.49l146.306 191.49h-259.16v158.51z" />
    <glyph glyph-name="iicyrillic" unicode="&#x438;" 
d="M529.292 700.009l-0.149414 -0.364258v-699.637h-158.531v353.677l-162.079 -353.677h-158.531v700h158.531v-354.104l162.079 353.677v0.427734h158.681z" />
    <glyph glyph-name="iishortcyrillic" unicode="&#x439;" 
d="M529.312 700.009l-0.170898 -0.385742v-699.615h-158.553v353.655l-162.079 -353.655h-158.51v700h158.51v-354.104l162.079 353.634v0.470703h158.724zM424.559 783.986h-263.093v124.932h263.093v-124.932z" />
    <glyph glyph-name="kacyrillic" unicode="&#x43a;" horiz-adv-x="592" 
d="M566.963 700.009l-168.385 -350l168.385 -350h-167.851l-130.274 270.745h-60.3174v-270.745h-158.51v700h158.51v-270.745h60.3174l130.274 270.745h167.851z" />
    <glyph glyph-name="elcyrillic" unicode="&#x43b;" horiz-adv-x="587" 
d="M139.7 700.01h397.189v-700h-158.55v541.49h-98.71l-63.3701 -541.49h-201.26v158.51h61.2998z" />
    <glyph glyph-name="emcyrillic" unicode="&#x43c;" horiz-adv-x="688" 
d="M452.516 700.009l185.27 -0.000976562v-700h-158.51v425.942l-134.87 -280.491l-0.470703 -1.17578l-0.0429688 0.0859375l-0.0429688 -0.0859375l-0.491211 1.17578l-134.827 280.471v-425.921h-158.531v700h185.292l108.602 -225.774z" />
    <glyph glyph-name="encyrillic" unicode="&#x43d;" horiz-adv-x="570" 
d="M361.74 700.009h158.51v-700h-158.51v270.745h-153.188v-270.745h-158.553v700h158.553v-270.745h153.188v270.745z" />
    <glyph glyph-name="ocyrillic" unicode="&#x43e;" 
d="M50 700.009h479.142v-700h-479.142v700zM370.61 158.519v382.98h-162.101v-382.98h162.101z" />
    <glyph glyph-name="pecyrillic" unicode="&#x43f;" 
d="M50 700.009h479.142v-700h-158.51v541.49h-162.101v-541.49h-158.531v700z" />
    <glyph glyph-name="ercyrillic" unicode="&#x440;" 
d="M50 700.009h479.12v-488.033h-320.61v-211.967h-158.51v700zM370.61 370.485v171.014h-162.101v-171.014h162.101z" />
    <glyph glyph-name="escyrillic" unicode="&#x441;" 
d="M50 700.009h479.121v-208.396h-158.51v49.8867h-162.101v-382.98h162.101v49.8867h158.51v-208.396h-479.121v700z" />
    <glyph glyph-name="tecyrillic" unicode="&#x442;" horiz-adv-x="530" 
d="M504.121 700.009v-158.51h-160.306v-541.49h-158.51v541.49h-160.306v158.51h479.121z" />
    <glyph glyph-name="ucyrillic" unicode="&#x443;" horiz-adv-x="570" 
d="M361.719 700.009h158.51v-700h-470.229v158.51h311.719v112.235h-311.719v429.255h158.51v-270.745h153.209v270.745z" />
    <glyph glyph-name="efcyrillic" unicode="&#x444;" horiz-adv-x="814" 
d="M486.372 620.754h277.862v-541.49h-277.862v-79.2549h-158.51v79.2549h-277.862v541.49h277.862v79.2549h158.51v-79.2549zM208.509 237.773h119.353v224.471h-119.353v-224.471zM605.724 237.773v224.471h-119.353v-224.471h119.353z" />
    <glyph glyph-name="khacyrillic" unicode="&#x445;" horiz-adv-x="666" 
d="M640.166 700.009l-168.406 -350l168.406 -350h-179.927l-127.646 265.316l-127.667 -265.316h-179.927l168.406 350l-168.406 350h179.927l127.667 -265.316l127.646 265.316h179.927z" />
    <glyph glyph-name="tsecyrillic" unicode="&#x446;" horiz-adv-x="566" 
d="M481.393 158.519h79.2773v-257.664h-158.553v99.1543h-352.116v700h158.51v-541.49h114.372v541.49h158.51v-541.49z" />
    <glyph glyph-name="checyrillic" unicode="&#x447;" horiz-adv-x="570" 
d="M361.719 700.009h158.51v-700h-158.51v270.745h-311.719v429.255h158.531v-270.745h153.188v270.745z" />
    <glyph glyph-name="shacyrillic" unicode="&#x448;" horiz-adv-x="804" 
d="M595.786 700.009h158.51v-700h-704.296v700h158.553v-541.49h114.33v541.49h158.531v-541.49h114.372v541.49z" />
    <glyph glyph-name="shchacyrillic" unicode="&#x449;" horiz-adv-x="839" 
d="M754.254 158.519h79.2764v-257.664h-158.51v99.1543h-625.02v700h158.51v-541.49h114.372v541.49h158.51v-541.49h114.352v541.49h158.51v-541.49z" />
    <glyph glyph-name="hardsigncyrillic" unicode="&#x44a;" horiz-adv-x="634" 
d="M263.24 488.04h320.61v-488.03h-479.12v541.49h-99.7305v158.51h258.24v-211.97zM263.24 158.521h162.1v171.01h-162.1v-171.01z" />
    <glyph glyph-name="yericyrillic" unicode="&#x44b;" horiz-adv-x="802" 
d="M752.052 0.00878906h-158.51v700h158.51v-700zM208.51 488.042h320.611v-488.033h-479.121v700h158.51v-211.967zM208.511 158.519h162.101v171.014h-162.101v-171.014z" />
    <glyph glyph-name="softsigncyrillic" unicode="&#x44c;" 
d="M208.51 488.042h320.611v-488.033h-479.121v700h158.51v-211.967zM208.511 158.519h162.101v171.014h-162.101v-171.014z" />
    <glyph glyph-name="ereversedcyrillic" unicode="&#x44d;" 
d="M50 700.009h479.121v-700h-479.121v208.396h158.51v-49.8867h162.101v112.235h-162.101v158.51h162.101v112.235h-162.101v-49.8867h-158.51v208.396z" />
    <glyph glyph-name="iucyrillic" unicode="&#x44e;" horiz-adv-x="831" 
d="M302.106 700.009h479.143v-700h-479.142v270.745h-93.5547v-270.745h-158.553v700h158.553v-270.745h93.5537v270.745zM622.718 158.519v382.98h-162.101v-382.98h162.101z" />
    <glyph glyph-name="iacyrillic" unicode="&#x44f;" 
d="M50 700.009h479.12v-700h-158.51v211.967h-58.8643l-103.236 -211.967h-158.51l103.236 211.967h-103.236v488.033zM370.61 370.485v171.014h-162.101v-171.014h162.101z" />
    <glyph glyph-name="iocyrillic" unicode="&#x451;" 
d="M529.142 541.499h-320.61v-112.235h162.079v-158.51h-162.079v-112.235h320.61v-158.51h-479.142v700h479.142v-158.51zM262.437 783.987h-124.932v124.932h124.932v-124.932zM441.594 783.987h-124.932v124.932h124.932v-124.932z" />
    <glyph glyph-name="djecyrillic" unicode="&#x452;" horiz-adv-x="626" 
d="M254.78 443.04l320.608 0.000976562v-443.04h-237.77v158.51h79.2598v126.02h-162.1v-284.53h-158.51v541.49h-91.2695v158.51h341.07v-158.51h-91.29v-98.4502z" />
    <glyph glyph-name="gjecyrillic" unicode="&#x453;" horiz-adv-x="465" 
d="M439.051 700.009v-158.51h-230.52v-541.49h-158.531v700h389.051zM354.88 958.763l-45.7832 -174.754h-128.138l45.7832 174.754h128.138z" />
    <glyph glyph-name="ecyrillic" unicode="&#x454;" 
d="M50 700.009h479.121v-208.396h-158.51v49.8867h-162.101v-112.235h162.101v-158.51h-162.101v-112.235h162.101v49.8867h158.51v-208.396h-479.121v700z" />
    <glyph glyph-name="dzecyrillic" unicode="&#x455;" 
d="M529.142 541.471h-320.61v-112.235h320.61v-429.255h-479.142v158.51h320.632v112.235h-320.61v429.255h479.12v-158.51z" />
    <glyph glyph-name="icyrillic" unicode="&#x456;" horiz-adv-x="259" 
d="M208.531 0.00878906h-158.531v700h158.531v-700z" />
    <glyph glyph-name="yicyrillic" unicode="&#x457;" horiz-adv-x="315" 
d="M236.33 0.00976562h-158.53v700h158.53v-700zM129.93 783.99h-124.93v124.93h124.93v-124.93zM309.09 783.99h-124.93v124.93h124.93v-124.93z" />
    <glyph glyph-name="jecyrillic" unicode="&#x458;" 
d="M50 700.009h479.121v-700h-479.121v270.745h158.51v-112.235h162.101v382.98h-320.61v158.51z" />
    <glyph glyph-name="ljecyrillic" unicode="&#x459;" horiz-adv-x="909" 
d="M536.87 429.26h321.21v-429.25h-479.74v541.49h-98.71l-63.3701 -541.49h-201.26v158.51h61.2998l63.4004 541.49h397.17v-270.75zM536.87 158.52h162.68v112.23h-162.68v-112.23z" />
    <glyph glyph-name="njecyrillic" unicode="&#x45a;" horiz-adv-x="891" 
d="M520.25 429.264h320.611v-429.255h-479.121v270.745h-153.188v-270.745h-158.553v700h158.553v-270.745h153.188v270.745h158.51v-270.745zM520.272 158.519h162.101v112.235h-162.101v-112.235z" />
    <glyph glyph-name="tshecyrillic" unicode="&#x45b;" horiz-adv-x="619" 
d="M247.94 443.05h320.609v-443.04h-158.51v284.53h-162.1v-284.53h-158.51v541.49h-84.4297v158.51h325.76v-158.51h-82.8203v-98.4502z" />
    <glyph glyph-name="kjecyrillic" unicode="&#x45c;" horiz-adv-x="583" 
d="M557.634 700.009l-168.406 -350l168.406 -350h-158.531l-130.254 270.745h-60.3389v-270.745h-158.51v700h158.51v-270.745h60.3389l130.254 270.745h158.531zM391.365 958.763l-45.8047 -174.754h-128.138l45.8047 174.754h128.138z" />
    <glyph glyph-name="ushortcyrillic" unicode="&#x45e;" horiz-adv-x="570" 
d="M416.672 783.987h-263.093v124.932h263.093v-124.932zM361.72 700.009h158.511v-700h-470.229v158.51h311.719v112.235h-311.719v429.255h158.51v-270.745h153.209v270.745z" />
    <glyph glyph-name="dzhecyrillic" unicode="&#x45f;" 
d="M370.61 700.009h158.532v-700h-160.306v-113.239h-158.531v113.239h-160.306v700h158.51v-541.49h162.101v541.49z" />
    <glyph glyph-name="Yatcyrillic" unicode="&#x462;" horiz-adv-x="634" 
d="M263.241 429.255h320.61v-429.255h-479.12v507.762h-99.7314v112.983h99.7314v79.2549h158.51v-79.2549h104.391v-112.983h-104.391v-78.5068zM263.241 158.51h162.101v112.235h-162.101v-112.235z" />
    <glyph glyph-name="yatcyrillic" unicode="&#x463;" horiz-adv-x="634" 
d="M263.241 429.255h320.61v-429.255h-479.12v507.762h-99.7314v112.983h99.7314v79.2549h158.51v-79.2549h104.391v-112.983h-104.391v-78.5068zM263.241 158.51h162.101v112.235h-162.101v-112.235z" />
    <glyph glyph-name="Yuslittlecyrillic" unicode="&#x466;" horiz-adv-x="577" 
d="M392.655 -0.0195312l-19.3018 164.58h-46.6172v-164.58h-85.0684v164.58h-38.8789l-19.2578 -164.58h-158.531l81.9482 700h362.29l81.9482 -700h-158.531zM221.362 323.07h133.46l-25.5635 218.4h-82.333z" />
    <glyph glyph-name="yuslittlecyrillic" unicode="&#x467;" horiz-adv-x="577" 
d="M392.655 -0.0195312l-19.3018 164.58h-46.6172v-164.58h-85.0684v164.58h-38.8789l-19.2578 -164.58h-158.531l81.9482 700h362.29l81.9482 -700h-158.531zM221.362 323.07h133.46l-25.5635 218.4h-82.333z" />
    <glyph glyph-name="Gheupturncyrillic" unicode="&#x490;" horiz-adv-x="465" 
d="M439.051 700.011v-158.51h-230.52v-541.49h-158.531v700h230.477v91.374h158.553v-91.374h0.0214844z" />
    <glyph glyph-name="gheupturncyrillic" unicode="&#x491;" horiz-adv-x="465" 
d="M439.04 700.009v-158.51h-230.52v-541.49h-158.51v700h230.455v91.374h158.553v-91.374h0.0214844z" />
    <glyph glyph-name="Ghestrokecyrillic" unicode="&#x492;" horiz-adv-x="589" 
d="M563.974 541.49h-320.589v-112.235h162.079v-158.51h-162.079v-270.745h-158.531v270.745h-79.8535v158.51h79.8535v270.745h479.12v-158.51z" />
    <glyph glyph-name="ghestrokecyrillic" unicode="&#x493;" horiz-adv-x="589" 
d="M563.97 541.5h-320.61v-112.24h162.08v-158.51h-162.08v-270.74h-158.51v270.74h-79.8496v158.51h79.8496v270.75h479.12v-158.51z" />
    <glyph glyph-name="Ghemiddlehookcyrillic" unicode="&#x494;" horiz-adv-x="626" 
d="M254.777 443.041h320.609v-443.041h-237.765v158.51h79.2549v126.021h-162.101v-284.531h-158.488v541.49h-91.2881v158.51h341.065v-158.51h-91.2881v-98.4492z" />
    <glyph glyph-name="ghemiddlehookcyrillic" unicode="&#x495;" horiz-adv-x="626" 
d="M254.777 443.041h320.609v-443.041h-237.765v158.51h79.2549v126.021h-162.101v-284.531h-158.488v541.49h-91.2881v158.51h341.065v-158.51h-91.2881v-98.4492z" />
    <glyph glyph-name="Zhedescendercyrillic" unicode="&#x496;" horiz-adv-x="882" 
d="M776.704 158.519l100.501 0.000976562v-271.75h-158.531v113.239h-33.5791l-130.254 270.745h-36.3789v-270.745h-158.938v270.745h-36.3789l-130.274 -270.745h-167.872l168.406 350l-168.406 350h167.872l130.274 -270.745h36.3789v270.745h158.938v-270.745h36.3789
l130.254 270.745h167.872l-168.385 -350z" />
    <glyph glyph-name="zhedescendercyrillic" unicode="&#x497;" horiz-adv-x="883" 
d="M776.704 158.519l100.501 0.000976562v-271.75h-158.531v113.239h-33.5791l-130.254 270.745h-36.3789v-270.745h-158.938v270.745h-36.3789l-130.274 -270.745h-167.872l168.406 350l-168.406 350h167.872l130.274 -270.745h36.3789v270.745h158.938v-270.745h36.3789
l130.254 270.745h167.872l-168.385 -350z" />
    <glyph glyph-name="Zedescendercyrillic" unicode="&#x498;" horiz-adv-x="553" 
d="M50 700.009h452.702v-158.51h-0.235352l-146.327 -191.49l146.327 -191.49h0.235352v-158.51h-147.075v-113.239h-158.531v113.239h-147.096v158.51h259.16l-146.306 191.49l146.306 191.49h-259.16v158.51z" />
    <glyph glyph-name="zedescendercyrillic" unicode="&#x499;" horiz-adv-x="553" 
d="M50 700.009h452.702v-158.51h-0.235352l-146.327 -191.49l146.327 -191.49h0.235352v-158.51h-147.075v-113.239h-158.531v113.239h-147.096v158.51h259.16l-146.306 191.49l146.306 191.49h-259.16v158.51z" />
    <glyph glyph-name="Kadescendercyrillic" unicode="&#x49a;" horiz-adv-x="600" 
d="M481.371 158.51l112.77 0.000976562v-271.75h-158.531v113.239h-36.5068l-130.254 270.745h-60.3389v-270.745h-158.51v700h158.51v-270.745h60.3389l130.254 270.745h158.531l-168.406 -350z" />
    <glyph glyph-name="kadescendercyrillic" unicode="&#x49b;" horiz-adv-x="599" 
d="M481.371 158.519l112.77 0.000976562v-271.75h-158.531v113.239h-36.5068l-130.274 270.745h-60.3174v-270.745h-158.51v700h158.51v-270.745h60.3174l130.274 270.745h158.531l-168.406 -350z" />
    <glyph glyph-name="Kabashkircyrillic" unicode="&#x4a0;" horiz-adv-x="608" 
d="M582.312 700.002l-168.385 -350l168.385 -350h-158.531l-130.254 270.745h-60.3174v-270.745h-158.51v541.49h-69.7012v158.51h229.108v-158.51h-0.897461v-112.235h60.3174l130.254 270.745h158.531z" />
    <glyph glyph-name="kabashkircyrillic" unicode="&#x4a1;" horiz-adv-x="608" 
d="M582.312 700.009l-168.385 -350l168.385 -350h-158.531l-130.254 270.745h-60.3174v-270.745h-158.51v541.49h-69.7012v158.51h229.108v-158.51h-0.897461v-112.235h60.3174l130.254 270.745h158.531z" />
    <glyph glyph-name="Endescendercyrillic" unicode="&#x4a2;" horiz-adv-x="605" 
d="M520.229 158.51l78.999 0.000976562v-271.75h-158.531v113.239h-78.9561v270.745h-153.166v-270.745h-158.574v700h158.574v-270.745h153.166v270.745h158.488v-541.49z" />
    <glyph glyph-name="endescendercyrillic" unicode="&#x4a3;" horiz-adv-x="605" 
d="M520.229 158.519l78.9775 0.000976562v-271.75h-158.531v113.239h-78.9561v270.745h-153.166v-270.745h-158.553v700h158.553v-270.745h153.166v270.745h158.51v-541.49z" />
    <glyph glyph-name="Enghecyrillic" unicode="&#x4a4;" horiz-adv-x="600" 
d="M594.482 700.002v-158.51h-74.2539v-541.49h-158.51v270.745h-153.166v-270.745h-158.553v700h158.553v-270.745h153.166v270.745h232.764z" />
    <glyph glyph-name="enghecyrillic" unicode="&#x4a5;" horiz-adv-x="600" 
d="M594.482 700.009v-158.51h-74.2539v-541.49h-158.51v270.745h-153.166v-270.745h-158.553v700h158.553v-270.745h153.166v270.745h232.764z" />
    <glyph glyph-name="Esdescendercyrillic" unicode="&#x4aa;" 
d="M50 700.002h479.121v-208.396h-158.51v49.8867h-162.101v-382.98h162.101v49.8867h158.51v-208.396h-160.284v-113.239h-158.531v113.239h-160.306v700z" />
    <glyph glyph-name="esdescendercyrillic" unicode="&#x4ab;" 
d="M50 700.009h479.121v-208.396h-158.51v49.8652h-162.101v-382.959h162.101v49.8867h158.51v-208.396h-160.284v-113.239h-158.531v113.239h-160.306v700z" />
    <glyph glyph-name="Ustraightcyrillic" unicode="&#x4ae;" horiz-adv-x="645" 
d="M630.166 700.009l-228.317 -474.547v-225.453h-158.531v225.453l-228.317 474.547h179.927l127.667 -265.316l127.646 265.316h179.927z" />
    <glyph glyph-name="ustraightcyrillic" unicode="&#x4af;" horiz-adv-x="646" 
d="M630.146 700l-228.317 -474.547v-225.453h-158.531v225.475l-228.296 474.525h179.927l127.646 -265.316l127.646 265.316h179.927z" />
    <glyph glyph-name="Ustraightstrokecyrillic" unicode="&#x4b0;" horiz-adv-x="645" 
d="M630.166 700.009l-180.716 -375.606h73.3555v-158.51h-120.956v-165.884h-158.531v165.884h-120.956v158.51h73.3555l-180.718 375.606h179.927l127.646 -265.316l127.667 265.316h179.927z" />
    <glyph glyph-name="ustraightstrokecyrillic" unicode="&#x4b1;" horiz-adv-x="646" 
d="M630.146 700l-180.716 -375.585h73.3555v-158.531h-120.956v-165.884h-158.531v165.884h-120.978v158.531h73.377l-180.696 375.585h179.905l127.667 -265.316l127.646 265.316h179.927z" />
    <glyph glyph-name="Shhacyrillic" unicode="&#x4ba;" 
d="M208.531 443.05h320.61v-443.041h-158.531v284.531h-162.079v-284.531h-158.531v700h158.531v-256.959z" />
    <glyph glyph-name="shhacyrillic" unicode="&#x4bb;" 
d="M208.531 443.041h320.61v-443.041h-158.531v284.531h-162.079v-284.531h-158.531v700h158.531v-256.959z" />
    <glyph glyph-name="Abrevecyrillic" unicode="&#x4d0;" horiz-adv-x="577" 
d="M419.65 783.987h-263.093v124.932h263.093v-124.932zM392.655 -0.0126953l-19.2803 164.58h-170.564l-19.2578 -164.58h-158.553l81.9697 700h362.269l81.9482 -700h-158.531zM221.362 323.077h133.46l-25.5635 218.4h-82.333z" />
    <glyph glyph-name="abrevecyrillic" unicode="&#x4d1;" horiz-adv-x="577" 
d="M419.65 783.987h-263.093v124.932h263.093v-124.932zM392.655 -0.0126953l-19.2803 164.58h-170.564l-19.2578 -164.58h-158.553l81.9697 700h362.269l81.9482 -700h-158.531zM221.362 323.077h133.46l-25.5635 218.4h-82.333z" />
    <glyph glyph-name="Iebrevecyrillic" unicode="&#x4d6;" 
d="M529.142 541.469h-320.61v-112.235h162.079v-158.51h-162.079v-112.235h320.61v-158.51h-479.142v700h479.142v-158.51zM421.117 783.979h-263.093v124.932h263.093v-124.932z" />
    <glyph glyph-name="iebrevecyrillic" unicode="&#x4d7;" 
d="M529.142 541.469h-320.61v-112.235h162.079v-158.51h-162.079v-112.235h320.61v-158.51h-479.142v700h479.142v-158.51zM421.117 783.979h-263.093v124.932h263.093v-124.932z" />
    <glyph glyph-name="schwacyrillic" unicode="&#x4d9;" 
d="M50 700h479.142v-700h-479.142v429.255h320.61v112.235h-320.61v158.51zM370.61 158.51v112.235h-162.079v-112.235h162.079z" />
    <glyph glyph-name="Zhedieresiscyrillic" unicode="&#x4dc;" horiz-adv-x="878" 
d="M852.967 700.009l-168.385 -350l168.385 -350h-167.872l-130.254 270.745h-36.4004v-270.745h-158.916v270.745h-36.4004l-130.254 -270.745h-167.872l168.385 350l-168.385 350h167.872l130.254 -270.745h36.4004v270.745h158.916v-270.745h36.4004l130.254 270.745
h167.872zM411.87 783.987h-124.932v124.932h124.932v-124.932zM591.027 783.987h-124.932v124.932h124.932v-124.932z" />
    <glyph glyph-name="zhedieresiscyrillic" unicode="&#x4dd;" horiz-adv-x="878" 
d="M852.967 700.009l-168.385 -350l168.385 -350h-167.872l-130.254 270.745h-36.4004v-270.745h-158.916v270.745h-36.4004l-130.254 -270.745h-167.872l168.385 350l-168.385 350h167.872l130.254 -270.745h36.4004v270.745h158.916v-270.745h36.4004l130.254 270.745
h167.872zM411.87 783.987h-124.932v124.932h124.932v-124.932zM591.027 783.987h-124.932v124.932h124.932v-124.932z" />
    <glyph glyph-name="Zedieresiscyrillic" unicode="&#x4de;" horiz-adv-x="553" 
d="M50 700.009h452.702v-158.51h-0.235352l-146.327 -191.49l146.327 -191.49h0.235352v-158.51h-452.702v158.51h259.182l-146.327 191.49l146.327 191.49h-259.182v158.51zM249.249 783.987h-124.932v124.932h124.932v-124.932zM428.406 783.987h-124.932v124.932h124.932
v-124.932z" />
    <glyph glyph-name="zedieresiscyrillic" unicode="&#x4df;" horiz-adv-x="553" 
d="M50 700.009h452.702v-158.51h-0.235352l-146.327 -191.49l146.327 -191.49h0.235352v-158.51h-452.702v158.51h259.182l-146.327 191.49l146.327 191.49h-259.182v158.51zM249.249 783.987h-124.932v124.932h124.932v-124.932zM428.406 783.987h-124.932v124.932h124.932
v-124.932z" />
    <glyph glyph-name="Idieresiscyrillic" unicode="&#x4e4;" 
d="M529.292 700.009l-0.170898 -0.364258v-699.637h-158.531v353.677l-162.079 -353.677h-158.51v700h158.51v-354.104l162.079 353.677v0.427734h158.702zM262.544 783.986h-124.932v124.932h124.932v-124.932zM441.701 783.986h-124.932v124.932h124.932v-124.932z" />
    <glyph glyph-name="idieresiscyrillic" unicode="&#x4e5;" 
d="M529.292 700.009l-0.170898 -0.364258v-699.637h-158.531v353.677l-162.079 -353.677h-158.51v700h158.51v-354.104l162.079 353.677v0.427734h158.702zM262.544 783.986h-124.932v124.932h124.932v-124.932zM441.701 783.986h-124.932v124.932h124.932v-124.932z" />
    <glyph glyph-name="Odieresiscyrillic" unicode="&#x4e6;" 
d="M50 700.009h479.142v-700h-479.142v700zM370.61 158.519v382.98h-162.101v-382.98h162.101zM262.479 783.987h-124.932v124.932h124.932v-124.932zM441.615 783.987h-124.932v124.932h124.932v-124.932z" />
    <glyph glyph-name="odieresiscyrillic" unicode="&#x4e7;" 
d="M50 700.009h479.142v-700h-479.142v700zM370.61 158.519v382.98h-162.101v-382.98h162.101zM262.479 783.987h-124.932v124.932h124.932v-124.932zM441.615 783.987h-124.932v124.932h124.932v-124.932z" />
    <glyph glyph-name="Obarredcyrillic" unicode="&#x4e8;" horiz-adv-x="643" 
d="M50 699.514h543.264v-700h-543.264v700zM208.51 158.023h226.223v129.035h-226.223v-129.035zM434.732 411.969v129.035h-226.223v-129.035h226.223z" />
    <glyph glyph-name="obarredcyrillic" unicode="&#x4e9;" horiz-adv-x="643" 
d="M50 699.51h543.26v-700h-543.26v700zM208.51 158.02h226.22v129.04h-226.22v-129.04zM434.729 411.97v129.03h-226.22v-129.03h226.22z" />
    <glyph glyph-name="Udieresiscyrillic" unicode="&#x4f0;" horiz-adv-x="570" 
d="M361.719 700.009h158.51v-700h-470.229v158.51h311.719v112.235h-311.719v429.255h158.51v-270.745h153.209v270.745zM258.012 783.987h-124.932v124.932h124.932v-124.932zM437.169 783.987h-124.932v124.932h124.932v-124.932z" />
    <glyph glyph-name="udieresiscyrillic" unicode="&#x4f1;" horiz-adv-x="570" 
d="M361.719 700.009h158.51v-700h-470.229v158.51h311.719v112.235h-311.719v429.255h158.51v-270.745h153.209v270.745zM258.012 783.987h-124.932v124.932h124.932v-124.932zM437.169 783.987h-124.932v124.932h124.932v-124.932z" />
    <glyph glyph-name="Uhungarumlautcyrillic" unicode="&#x4f2;" horiz-adv-x="570" 
d="M361.719 699.998h158.51v-700h-470.229v158.51h311.719v112.235h-311.719v429.255h158.51v-270.745h153.209v270.745zM302.833 958.752l-45.7832 -174.754h-92.165l45.7832 174.754h92.165zM448.091 958.752l-45.7832 -174.754h-92.165l45.7832 174.754h92.165z" />
    <glyph glyph-name="uhungarumlautcyrillic" unicode="&#x4f3;" horiz-adv-x="570" 
d="M361.719 699.998h158.51v-700h-470.229v158.51h311.719v112.235h-311.719v429.255h158.51v-270.745h153.209v270.745zM302.833 958.752l-45.7832 -174.754h-92.165l45.7832 174.754h92.165zM448.091 958.752l-45.7832 -174.754h-92.165l45.7832 174.754h92.165z" />
    <glyph glyph-name="Chedieresiscyrillic" unicode="&#x4f4;" horiz-adv-x="570" 
d="M361.719 700.009h158.51v-700h-158.51v270.745h-311.719v429.255h158.51v-270.745h153.209v270.745zM257.99 783.987h-124.932v124.932h124.932v-124.932zM437.147 783.987h-124.932v124.932h124.932v-124.932z" />
    <glyph glyph-name="chedieresiscyrillic" unicode="&#x4f5;" horiz-adv-x="570" 
d="M361.719 700.009h158.51v-700h-158.51v270.745h-311.719v429.255h158.51v-270.745h153.209v270.745zM257.99 783.987h-124.932v124.932h124.932v-124.932zM437.147 783.987h-124.932v124.932h124.932v-124.932z" />
    <glyph glyph-name="uni1e9e" unicode="&#x1e9e;" 
d="M440.439 443.05h88.6592v-521.591h-237.765v158.51h79.2549v204.571h-162.079v-284.531h-158.51v700h390.439v-256.959zM208.51 541.499v-98.4492h73.4199v98.4492h-73.4199z" />
    <glyph glyph-name="endash" unicode="&#x2013;" horiz-adv-x="592" 
d="M541.604 270.749h-491.604v158.51h491.604v-158.51z" />
    <glyph glyph-name="emdash" unicode="&#x2014;" horiz-adv-x="421" 
d="M370.61 270.754h-320.61v158.51h320.61v-158.51z" />
    <glyph glyph-name="quoteright" unicode="&#x2019;" horiz-adv-x="239" 
d="M50 787.38h138.525l-45.7832 -249.35h-92.7422v249.35z" />
    <glyph glyph-name="Euro" unicode="&#x20ac;" horiz-adv-x="650" 
d="M120.478 700h479.12v-208.396h-158.51v49.8867h-162.101v-80.3447h162.101v-85.8594h-162.101v-50.5713h162.079v-85.8594h-162.079v-80.3447h162.101v49.8867h158.51v-208.396h-479.12v238.854h-95.4775v85.8594h95.4775v50.5713h-95.4561v85.8594h95.4561v238.854z" />
    <glyph glyph-name="uni20b8" unicode="&#x20b8;" 
d="M529.121 620.729h-479.121v79.2549h479.121v-79.2549zM529.121 541.474v-158.51h-160.306v-382.98h-158.51v382.98h-160.306v158.51h479.121z" />
    <glyph glyph-name="uni20bd" unicode="&#x20bd;" horiz-adv-x="641" 
d="M111.84 700.01h479.12v-439.3h-320.61v-58.3301h162.1v-134.89h-162.1v-67.4805h-158.51v67.4805h-86.8398v134.89h86.8398v497.63zM432.45 419.22v122.28h-162.1v-122.28h162.1z" />
    <glyph glyph-name="numero" unicode="&#x2116;" horiz-adv-x="890" 
d="M370.781 345.926v354.104h158.531v-700h-158.531l-162.079 353.677v-353.677h-158.531v699.637l-0.170898 0.363281h158.702v-0.427734zM585.676 700.03h254.693v-254.693h-254.693v254.693zM744.186 541.521v62.3271h-62.3271v-62.3271h62.3271zM840.369 240.639
h-254.693v126.299h254.693v-126.299z" />
    <glyph glyph-name="trademark" unicode="&#x2122;" horiz-adv-x="578" 
d="M50 832.259h190.357v-77.1172h-56.6201v-199.334h-77.1172v199.334h-56.6201v77.1172zM451.212 832.259h77.1172v-276.452h-77.1172v116.04l-52.5801 -109.393l-0.235352 -0.577148l-0.0214844 0.0429688l-0.0214844 -0.0429688l-0.235352 0.577148l-52.5801 109.371
v-116.019h-77.1172v276.452h77.1172l52.8369 -109.841z" />
    <glyph glyph-name="notequal" unicode="&#x2260;" horiz-adv-x="498" 
d="M447.878 384.135l-126.492 0.000976562l-37.4258 -68.29h163.918v-115.911h-227.441l-50.5068 -92.1865h-107.469l50.5068 92.1865h-62.9678v115.911h126.471l37.4258 68.29h-163.854v115.933h227.355l50.5283 92.2285h107.533l-50.5498 -92.2295h62.9678v-115.933z" />
    <glyph glyph-name="tecyrillic.alt1" unicode="&#xf001;" horiz-adv-x="804" 
d="M50 700h704.296v-700h-158.553v541.49h-114.33v-541.49h-158.51v541.49h-114.394v-541.49h-158.51v700z" />
    <glyph glyph-name="iacyrillic.alt1" unicode="&#xf002;" horiz-adv-x="576" 
d="M25 700.009h500.322v-700h-158.51v270.745h-59.9111l-108.452 -270.745h-164.388l108.452 270.745h-44.0088zM366.812 429.264l0.000976562 112.235h-156.159l19.2148 -112.235h136.943z" />
    <glyph glyph-name="iecyrillic.alt1" unicode="&#xf004;" horiz-adv-x="543" 
d="M492.724 700.009v-158.51h-259.182l146.327 -191.49l-146.327 -191.49h259.182v-158.51h-452.724v158.51h0.256836l146.306 191.49l-146.306 191.49h-0.256836v158.51h452.724z" />
    <glyph glyph-name="iocyrillic.alt1" unicode="&#xf005;" horiz-adv-x="543" 
d="M492.691 700.009v-158.51h-259.16l146.327 -191.49l-146.327 -191.49h259.16v-158.51h-452.681v158.51h0.213867l146.327 191.49l-146.327 191.49h-0.213867v158.51h452.681zM239.238 783.987h-124.932v124.932h124.932v-124.932zM418.396 783.987h-124.932v124.932
h124.932v-124.932z" />
    <glyph glyph-name="ercyrillic.alt1" unicode="&#xf006;" horiz-adv-x="568" 
d="M383.691 699.987l158.51 0.0224609l-64.1221 -488.013h-269.569v-211.967h-158.51v699.957h333.691zM208.51 370.486h131.899l22.4639 170.992h-154.363v-170.992z" />
    <glyph glyph-name="zhecyrillic.alt1" unicode="&#xf007;" horiz-adv-x="742" 
d="M618.064 429.264h72.3066v-429.255h-158.51v270.745h-81.7344v-270.745h-158.531v270.745h-81.7129v-270.745h-158.51v429.255h71.7314l-93.1055 270.745h167.872l93.1055 -270.745h0.620117v270.745h158.531v-270.745h0.0644531l93.6826 270.745h167.872z" />
    <glyph glyph-name="kacyrillic.alt1" unicode="&#xf00a;" horiz-adv-x="567" 
d="M516.98 700.009v-191.105l-118.391 -158.895l118.391 -158.916v-191.084h-167.851v158.51l-85.4531 112.235h-55.166v-270.745h-158.51v700h158.51v-270.745h50.25l90.3691 114.629v156.116h167.851z" />
    <glyph glyph-name="vecyrillic.alt1" unicode="&#xf00b;" horiz-adv-x="570" 
d="M439.521 429.264h80.709v-429.255h-470.208v700h470.079zM306.703 541.499h-98.1709v-112.235h66.0889zM208.532 158.519h153.188v112.235h-153.188v-112.235z" />
    </font>
</defs>
</svg>
